%TF.GenerationSoftware,KiCad,Pcbnew,10.0.7*%
%TF.CreationDate,2026-10-10T23:56:10+09:00*%
%TF.ProjectId,dao_board,64616f5f-626f-4617-9264-2e6b69636164,rev?*%
%TF.SameCoordinates,Original*%
%TF.FileFunction,Soldermask,Top*%
%TF.FilePolarity,Negative*%
%FSLAX46Y46*%
G04 Gerber Fmt 4.6, Leading zero omitted, Abs format (unit mm)*
G04 Created by KiCad (PCBNEW 10.0.7) date 2026-10-10 23:56:10*
%MOMM*%
%LPD*%
G01*
G04 APERTURE LIST*
G04 Aperture macros list*
%AMRoundRect*
0 Rectangle with rounded corners*
0 $1 Rounding radius*
0 $2 $3 $4 $5 $6 $7 $8 $9 X,Y pos of 4 corners*
0 Add a 4 corners polygon primitive as box body*
4,1,4,$2,$3,$4,$5,$6,$7,$8,$9,$2,$3,0*
0 Add four circle primitives for the rounded corners*
1,1,$1+$1,$2,$3*
1,1,$1+$1,$4,$5*
1,1,$1+$1,$6,$7*
1,1,$1+$1,$8,$9*
0 Add four rect primitives between the rounded corners*
20,1,$1+$1,$2,$3,$4,$5,0*
20,1,$1+$1,$4,$5,$6,$7,0*
20,1,$1+$1,$6,$7,$8,$9,0*
20,1,$1+$1,$8,$9,$2,$3,0*%
%AMFreePoly0*
4,1,17,0.335278,0.685443,0.349923,0.650088,0.349923,-0.649935,0.335278,-0.685290,0.299923,-0.699935,0.000318,-0.699935,-0.000051,-0.700088,-0.300050,-0.700088,-0.335405,-0.685443,-0.350050,-0.650088,-0.350050,0.649935,-0.335405,0.685290,-0.300050,0.699935,-0.000445,0.699935,-0.000076,0.700088,0.299923,0.700088,0.335278,0.685443,0.335278,0.685443,$1*%
%AMFreePoly1*
4,1,17,0.335431,0.685290,0.350076,0.649935,0.350076,-0.650037,0.335431,-0.685392,0.300076,-0.700037,0.000187,-0.700037,0.000127,-0.700062,-0.299898,-0.700062,-0.335253,-0.685417,-0.349898,-0.650062,-0.349898,0.649910,-0.335253,0.685265,-0.299898,0.699910,-0.000009,0.699910,0.000051,0.699935,0.300076,0.699935,0.335431,0.685290,0.335431,0.685290,$1*%
%AMFreePoly2*
4,1,13,0.335227,0.685443,0.349872,0.650088,0.349872,-0.649884,0.335227,-0.685239,0.299872,-0.699884,-0.300152,-0.699884,-0.335507,-0.685239,-0.350152,-0.649884,-0.350152,0.650088,-0.335507,0.685443,-0.300152,0.700088,0.299872,0.700088,0.335227,0.685443,0.335227,0.685443,$1*%
G04 Aperture macros list end*
%ADD10RoundRect,0.135000X-0.185000X0.135000X-0.185000X-0.135000X0.185000X-0.135000X0.185000X0.135000X0*%
%ADD11RoundRect,0.225000X0.225000X0.250000X-0.225000X0.250000X-0.225000X-0.250000X0.225000X-0.250000X0*%
%ADD12C,5.300000*%
%ADD13RoundRect,0.140000X-0.140000X-0.170000X0.140000X-0.170000X0.140000X0.170000X-0.140000X0.170000X0*%
%ADD14C,2.000000*%
%ADD15RoundRect,0.140000X-0.170000X0.140000X-0.170000X-0.140000X0.170000X-0.140000X0.170000X0.140000X0*%
%ADD16O,0.343000X1.731000*%
%ADD17RoundRect,0.250000X-0.600000X-0.725000X0.600000X-0.725000X0.600000X0.725000X-0.600000X0.725000X0*%
%ADD18O,1.700000X1.950000*%
%ADD19R,0.600000X0.400000*%
%ADD20R,0.400000X0.600000*%
%ADD21RoundRect,0.250000X-1.000000X-0.650000X1.000000X-0.650000X1.000000X0.650000X-1.000000X0.650000X0*%
%ADD22RoundRect,0.112500X0.112500X-0.187500X0.112500X0.187500X-0.112500X0.187500X-0.112500X-0.187500X0*%
%ADD23RoundRect,0.135000X0.185000X-0.135000X0.185000X0.135000X-0.185000X0.135000X-0.185000X-0.135000X0*%
%ADD24R,2.030000X1.730000*%
%ADD25O,2.030000X1.730000*%
%ADD26RoundRect,0.140000X0.170000X-0.140000X0.170000X0.140000X-0.170000X0.140000X-0.170000X-0.140000X0*%
%ADD27O,1.200000X2.000000*%
%ADD28O,1.200000X1.800000*%
%ADD29FreePoly0,180.000000*%
%ADD30FreePoly1,180.000000*%
%ADD31R,0.300000X1.300000*%
%ADD32FreePoly2,180.000000*%
%ADD33R,1.700000X1.300000*%
%ADD34RoundRect,0.140000X0.140000X0.170000X-0.140000X0.170000X-0.140000X-0.170000X0.140000X-0.170000X0*%
%ADD35R,1.300000X1.700000*%
%ADD36RoundRect,0.225000X-0.225000X-0.250000X0.225000X-0.250000X0.225000X0.250000X-0.225000X0.250000X0*%
%ADD37RoundRect,0.250000X-0.600000X-0.750000X0.600000X-0.750000X0.600000X0.750000X-0.600000X0.750000X0*%
%ADD38O,1.700000X2.000000*%
%ADD39R,1.700000X1.700000*%
%ADD40C,1.700000*%
G04 APERTURE END LIST*
D10*
%TO.C,R1*%
X-16500000Y-16990000D03*
X-16500000Y-18010000D03*
%TD*%
D11*
%TO.C,C2*%
X-6225000Y-5000000D03*
X-7775000Y-5000000D03*
%TD*%
D12*
%TO.C,H2*%
X32713900Y-1106400D03*
%TD*%
D13*
%TO.C,C6*%
X-21960000Y-15000000D03*
X-21000000Y-15000000D03*
%TD*%
D14*
%TO.C,TP6*%
X-6500000Y-12500000D03*
%TD*%
D15*
%TO.C,C4*%
X12500000Y-16020000D03*
X12500000Y-16980000D03*
%TD*%
D12*
%TO.C,H1*%
X-38286100Y-1106400D03*
%TD*%
D16*
%TO.C,U2*%
X10280000Y-10260000D03*
X9630000Y-10260000D03*
X8980000Y-10260000D03*
X8320000Y-10260000D03*
X7670000Y-10260000D03*
X7020000Y-10260000D03*
X6370000Y-10260000D03*
X5720000Y-10260000D03*
X5720000Y-16000000D03*
X6370000Y-16000000D03*
X7020000Y-16000000D03*
X7670000Y-16000000D03*
X8320000Y-16000000D03*
X8980000Y-16000000D03*
X9630000Y-16000000D03*
X10280000Y-16000000D03*
%TD*%
D10*
%TO.C,R4*%
X-2000000Y-4980000D03*
X-2000000Y-6000000D03*
%TD*%
D14*
%TO.C,TP4*%
X-3000000Y-12500000D03*
%TD*%
D17*
%TO.C,J12*%
X-39500000Y10500000D03*
D18*
X-37000000Y10500000D03*
X-34500000Y10500000D03*
X-32000000Y10500000D03*
%TD*%
D19*
%TO.C,U1*%
X-14400000Y9447544D03*
X-14400000Y8347544D03*
X-14400000Y7547544D03*
X-14400000Y5947544D03*
X-13500000Y5547544D03*
X-14400000Y5147544D03*
X-13500000Y4747544D03*
X-14400000Y4347544D03*
X-13500000Y3947544D03*
X-14400000Y3547544D03*
X-13500000Y3147544D03*
X-14400000Y2747544D03*
X-13500000Y2347544D03*
X-14400000Y1947544D03*
D20*
X-14550000Y-1452456D03*
X-13750000Y-1452456D03*
X-12950000Y-1452456D03*
X-12150000Y-1452456D03*
X-11750000Y-552456D03*
X-11350000Y-1452456D03*
X-10950000Y-552456D03*
X-10550000Y-1452456D03*
X-10150000Y-552456D03*
X-9750000Y-1452456D03*
X-9350000Y-552456D03*
X-8950000Y-1452456D03*
X-8550000Y-552456D03*
X-8150000Y-1452456D03*
X-7750000Y-552456D03*
X-7350000Y-1452456D03*
X-6550000Y-1452456D03*
X-5750000Y-1452456D03*
X-4950000Y-1452456D03*
D19*
X-5100000Y-452456D03*
X-5100000Y347544D03*
X-6000000Y747544D03*
X-5100000Y1147544D03*
X-6000000Y1547544D03*
X-5100000Y1947544D03*
X-6000000Y2347544D03*
X-5100000Y2747544D03*
X-6000000Y3147544D03*
X-6000000Y3947544D03*
X-5100000Y4347544D03*
X-6000000Y4747544D03*
X-5100000Y5147544D03*
X-6000000Y5547544D03*
X-5100000Y5947544D03*
X-6000000Y6347544D03*
X-6000000Y7147544D03*
X-5100000Y7547544D03*
X-6000000Y7947544D03*
X-5100000Y8347544D03*
X-6000000Y8747544D03*
X-5100000Y9447544D03*
D20*
X-11750000Y5147544D03*
X-10950000Y5147544D03*
X-10150000Y5147544D03*
X-9350000Y5147544D03*
X-8550000Y5147544D03*
X-7750000Y5147544D03*
%TD*%
D14*
%TO.C,TP3*%
X500000Y-12500000D03*
%TD*%
D21*
%TO.C,D2*%
X-5000000Y-22000000D03*
X-1000000Y-22000000D03*
%TD*%
D22*
%TO.C,D1*%
X-25000000Y-16550000D03*
X-25000000Y-14450000D03*
%TD*%
D17*
%TO.C,J6*%
X8500000Y-30500000D03*
D18*
X11000000Y-30500000D03*
X13500000Y-30500000D03*
X16000000Y-30500000D03*
%TD*%
D12*
%TO.C,H3*%
X-38286100Y-31106400D03*
%TD*%
D17*
%TO.C,J11*%
X-30000000Y-39000000D03*
D18*
X-27500000Y-39000000D03*
X-25000000Y-39000000D03*
X-22500000Y-39000000D03*
%TD*%
D12*
%TO.C,H4*%
X32713900Y-31106400D03*
%TD*%
D17*
%TO.C,J10*%
X-22500000Y-30500000D03*
D18*
X-20000000Y-30500000D03*
X-17500000Y-30500000D03*
X-15000000Y-30500000D03*
%TD*%
D23*
%TO.C,R2*%
X5500000Y1990000D03*
X5500000Y3010000D03*
%TD*%
D17*
%TO.C,J13*%
X26500000Y10500000D03*
D18*
X29000000Y10500000D03*
X31500000Y10500000D03*
X34000000Y10500000D03*
%TD*%
D14*
%TO.C,TP1*%
X-35000000Y-15000000D03*
%TD*%
D24*
%TO.C,J3*%
X17500000Y4420000D03*
D25*
X17500000Y6960000D03*
X17500000Y9500000D03*
X17500000Y12040000D03*
%TD*%
D23*
%TO.C,R5*%
X-500000Y-6000000D03*
X-500000Y-4980000D03*
%TD*%
%TO.C,R7*%
X-2000000Y-8500000D03*
X-2000000Y-7480000D03*
%TD*%
D10*
%TO.C,R3*%
X3500000Y3010000D03*
X3500000Y1990000D03*
%TD*%
D14*
%TO.C,TP2*%
X-31000000Y-15000000D03*
%TD*%
D26*
%TO.C,C3*%
X12000000Y-9980000D03*
X12000000Y-9020000D03*
%TD*%
D17*
%TO.C,J8*%
X-7000000Y-30500000D03*
D18*
X-4500000Y-30500000D03*
X-2000000Y-30500000D03*
X500000Y-30500000D03*
%TD*%
D27*
%TO.C,USBC1*%
X1670000Y7267544D03*
D28*
X1670000Y11447544D03*
X10330000Y11447544D03*
D27*
X10330000Y7267544D03*
D29*
X9200000Y6507544D03*
D30*
X8400000Y6507544D03*
D31*
X7250000Y6507544D03*
X6250000Y6507544D03*
X5750000Y6507544D03*
X4750000Y6507544D03*
D32*
X2800000Y6507544D03*
X3600000Y6507544D03*
D31*
X4250000Y6507544D03*
X5250000Y6507544D03*
X6750000Y6507544D03*
X7750000Y6507544D03*
%TD*%
D33*
%TO.C,SW2*%
X-23500000Y-2160000D03*
X-23500000Y2160000D03*
%TD*%
D17*
%TO.C,J14*%
X-30000000Y-22000000D03*
D18*
X-27500000Y-22000000D03*
X-25000000Y-22000000D03*
X-22500000Y-22000000D03*
%TD*%
D34*
%TO.C,C1*%
X-7020000Y-3500000D03*
X-7980000Y-3500000D03*
%TD*%
D35*
%TO.C,SW1*%
X2840000Y-2500000D03*
X7160000Y-2500000D03*
%TD*%
D36*
%TO.C,C5*%
X-21775000Y-16500000D03*
X-20225000Y-16500000D03*
%TD*%
D37*
%TO.C,J1*%
X-14500000Y-22000000D03*
D38*
X-12000000Y-22000000D03*
%TD*%
D14*
%TO.C,TP5*%
X20000000Y-5000000D03*
%TD*%
D17*
%TO.C,J9*%
X-14500000Y-39000000D03*
D18*
X-12000000Y-39000000D03*
X-9500000Y-39000000D03*
X-7000000Y-39000000D03*
%TD*%
D17*
%TO.C,J7*%
X1000000Y-39000000D03*
D18*
X3500000Y-39000000D03*
X6000000Y-39000000D03*
X8500000Y-39000000D03*
%TD*%
D17*
%TO.C,J5*%
X16500000Y-39000000D03*
D18*
X19000000Y-39000000D03*
X21500000Y-39000000D03*
X24000000Y-39000000D03*
%TD*%
D39*
%TO.C,J4*%
X32460000Y-9000000D03*
D40*
X35000000Y-9000000D03*
X32460000Y-11540000D03*
X35000000Y-11540000D03*
X32460000Y-14080000D03*
X35000000Y-14080000D03*
X32460000Y-16620000D03*
X35000000Y-16620000D03*
X32460000Y-19160000D03*
X35000000Y-19160000D03*
%TD*%
D16*
%TO.C,U3*%
X14220000Y-15870000D03*
X14870000Y-15870000D03*
X15520000Y-15870000D03*
X16180000Y-15870000D03*
X16830000Y-15870000D03*
X17480000Y-15870000D03*
X18130000Y-15870000D03*
X18780000Y-15870000D03*
X18780000Y-10130000D03*
X18130000Y-10130000D03*
X17480000Y-10130000D03*
X16830000Y-10130000D03*
X16180000Y-10130000D03*
X15520000Y-10130000D03*
X14870000Y-10130000D03*
X14220000Y-10130000D03*
%TD*%
D23*
%TO.C,R6*%
X-500000Y-8500000D03*
X-500000Y-7480000D03*
%TD*%
M02*
