%TF.GenerationSoftware,KiCad,Pcbnew,10.0.7*%
%TF.CreationDate,2026-10-10T23:56:10+09:00*%
%TF.ProjectId,dao_board,64616f5f-626f-4617-9264-2e6b69636164,rev?*%
%TF.SameCoordinates,Original*%
%TF.FileFunction,Soldermask,Bot*%
%TF.FilePolarity,Negative*%
%FSLAX46Y46*%
G04 Gerber Fmt 4.6, Leading zero omitted, Abs format (unit mm)*
G04 Created by KiCad (PCBNEW 10.0.7) date 2026-10-10 23:56:10*
%MOMM*%
%LPD*%
G01*
G04 APERTURE LIST*
G04 Aperture macros list*
%AMRoundRect*
0 Rectangle with rounded corners*
0 $1 Rounding radius*
0 $2 $3 $4 $5 $6 $7 $8 $9 X,Y pos of 4 corners*
0 Add a 4 corners polygon primitive as box body*
4,1,4,$2,$3,$4,$5,$6,$7,$8,$9,$2,$3,0*
0 Add four circle primitives for the rounded corners*
1,1,$1+$1,$2,$3*
1,1,$1+$1,$4,$5*
1,1,$1+$1,$6,$7*
1,1,$1+$1,$8,$9*
0 Add four rect primitives between the rounded corners*
20,1,$1+$1,$2,$3,$4,$5,0*
20,1,$1+$1,$4,$5,$6,$7,0*
20,1,$1+$1,$6,$7,$8,$9,0*
20,1,$1+$1,$8,$9,$2,$3,0*%
G04 Aperture macros list end*
%ADD10C,5.300000*%
%ADD11RoundRect,0.250000X-0.600000X-0.725000X0.600000X-0.725000X0.600000X0.725000X-0.600000X0.725000X0*%
%ADD12O,1.700000X1.950000*%
%ADD13C,1.100000*%
%ADD14R,2.030000X1.730000*%
%ADD15O,2.030000X1.730000*%
%ADD16C,0.600000*%
%ADD17O,1.200000X2.000000*%
%ADD18O,1.200000X1.800000*%
%ADD19RoundRect,0.250000X-0.600000X-0.750000X0.600000X-0.750000X0.600000X0.750000X-0.600000X0.750000X0*%
%ADD20O,1.700000X2.000000*%
%ADD21R,1.700000X1.700000*%
%ADD22C,1.700000*%
G04 APERTURE END LIST*
D10*
%TO.C,H2*%
X32713900Y-1106400D03*
%TD*%
%TO.C,H1*%
X-38286100Y-1106400D03*
%TD*%
D11*
%TO.C,J12*%
X-39500000Y10500000D03*
D12*
X-37000000Y10500000D03*
X-34500000Y10500000D03*
X-32000000Y10500000D03*
%TD*%
D11*
%TO.C,J6*%
X8500000Y-30500000D03*
D12*
X11000000Y-30500000D03*
X13500000Y-30500000D03*
X16000000Y-30500000D03*
%TD*%
D10*
%TO.C,H3*%
X-38286100Y-31106400D03*
%TD*%
D11*
%TO.C,J11*%
X-30000000Y-39000000D03*
D12*
X-27500000Y-39000000D03*
X-25000000Y-39000000D03*
X-22500000Y-39000000D03*
%TD*%
D10*
%TO.C,H4*%
X32713900Y-31106400D03*
%TD*%
D11*
%TO.C,J10*%
X-22500000Y-30500000D03*
D12*
X-20000000Y-30500000D03*
X-17500000Y-30500000D03*
X-15000000Y-30500000D03*
%TD*%
D11*
%TO.C,J13*%
X26500000Y10500000D03*
D12*
X29000000Y10500000D03*
X31500000Y10500000D03*
X34000000Y10500000D03*
%TD*%
D13*
%TO.C,J3*%
X15340000Y9500000D03*
D14*
X17500000Y4420000D03*
D15*
X17500000Y6960000D03*
X17500000Y9500000D03*
X17500000Y12040000D03*
%TD*%
D11*
%TO.C,J8*%
X-7000000Y-30500000D03*
D12*
X-4500000Y-30500000D03*
X-2000000Y-30500000D03*
X500000Y-30500000D03*
%TD*%
D16*
%TO.C,USBC1*%
X8900000Y7767544D03*
X3100000Y7767544D03*
D17*
X1670000Y7267544D03*
D18*
X1670000Y11447544D03*
X10330000Y11447544D03*
D17*
X10330000Y7267544D03*
%TD*%
D11*
%TO.C,J14*%
X-30000000Y-22000000D03*
D12*
X-27500000Y-22000000D03*
X-25000000Y-22000000D03*
X-22500000Y-22000000D03*
%TD*%
D19*
%TO.C,J1*%
X-14500000Y-22000000D03*
D20*
X-12000000Y-22000000D03*
%TD*%
D11*
%TO.C,J9*%
X-14500000Y-39000000D03*
D12*
X-12000000Y-39000000D03*
X-9500000Y-39000000D03*
X-7000000Y-39000000D03*
%TD*%
D11*
%TO.C,J7*%
X1000000Y-39000000D03*
D12*
X3500000Y-39000000D03*
X6000000Y-39000000D03*
X8500000Y-39000000D03*
%TD*%
D11*
%TO.C,J5*%
X16500000Y-39000000D03*
D12*
X19000000Y-39000000D03*
X21500000Y-39000000D03*
X24000000Y-39000000D03*
%TD*%
D21*
%TO.C,J4*%
X32460000Y-9000000D03*
D22*
X35000000Y-9000000D03*
X32460000Y-11540000D03*
X35000000Y-11540000D03*
X32460000Y-14080000D03*
X35000000Y-14080000D03*
X32460000Y-16620000D03*
X35000000Y-16620000D03*
X32460000Y-19160000D03*
X35000000Y-19160000D03*
%TD*%
M02*
