%TF.GenerationSoftware,KiCad,Pcbnew,10.0.7*%
%TF.CreationDate,2026-10-10T23:56:10+09:00*%
%TF.ProjectId,dao_board,64616f5f-626f-4617-9264-2e6b69636164,rev?*%
%TF.SameCoordinates,Original*%
%TF.FileFunction,Paste,Top*%
%TF.FilePolarity,Positive*%
%FSLAX46Y46*%
G04 Gerber Fmt 4.6, Leading zero omitted, Abs format (unit mm)*
G04 Created by KiCad (PCBNEW 10.0.7) date 2026-10-10 23:56:10*
%MOMM*%
%LPD*%
G01*
G04 APERTURE LIST*
G04 Aperture macros list*
%AMRoundRect*
0 Rectangle with rounded corners*
0 $1 Rounding radius*
0 $2 $3 $4 $5 $6 $7 $8 $9 X,Y pos of 4 corners*
0 Add a 4 corners polygon primitive as box body*
4,1,4,$2,$3,$4,$5,$6,$7,$8,$9,$2,$3,0*
0 Add four circle primitives for the rounded corners*
1,1,$1+$1,$2,$3*
1,1,$1+$1,$4,$5*
1,1,$1+$1,$6,$7*
1,1,$1+$1,$8,$9*
0 Add four rect primitives between the rounded corners*
20,1,$1+$1,$2,$3,$4,$5,0*
20,1,$1+$1,$4,$5,$6,$7,0*
20,1,$1+$1,$6,$7,$8,$9,0*
20,1,$1+$1,$8,$9,$2,$3,0*%
%AMFreePoly0*
4,1,17,0.335278,0.685443,0.349923,0.650088,0.349923,-0.649935,0.335278,-0.685290,0.299923,-0.699935,0.000318,-0.699935,-0.000051,-0.700088,-0.300050,-0.700088,-0.335405,-0.685443,-0.350050,-0.650088,-0.350050,0.649935,-0.335405,0.685290,-0.300050,0.699935,-0.000445,0.699935,-0.000076,0.700088,0.299923,0.700088,0.335278,0.685443,0.335278,0.685443,$1*%
%AMFreePoly1*
4,1,17,0.335431,0.685290,0.350076,0.649935,0.350076,-0.650037,0.335431,-0.685392,0.300076,-0.700037,0.000187,-0.700037,0.000127,-0.700062,-0.299898,-0.700062,-0.335253,-0.685417,-0.349898,-0.650062,-0.349898,0.649910,-0.335253,0.685265,-0.299898,0.699910,-0.000009,0.699910,0.000051,0.699935,0.300076,0.699935,0.335431,0.685290,0.335431,0.685290,$1*%
%AMFreePoly2*
4,1,13,0.335227,0.685443,0.349872,0.650088,0.349872,-0.649884,0.335227,-0.685239,0.299872,-0.699884,-0.300152,-0.699884,-0.335507,-0.685239,-0.350152,-0.649884,-0.350152,0.650088,-0.335507,0.685443,-0.300152,0.700088,0.299872,0.700088,0.335227,0.685443,0.335227,0.685443,$1*%
G04 Aperture macros list end*
%ADD10RoundRect,0.135000X-0.185000X0.135000X-0.185000X-0.135000X0.185000X-0.135000X0.185000X0.135000X0*%
%ADD11RoundRect,0.225000X0.225000X0.250000X-0.225000X0.250000X-0.225000X-0.250000X0.225000X-0.250000X0*%
%ADD12RoundRect,0.140000X-0.140000X-0.170000X0.140000X-0.170000X0.140000X0.170000X-0.140000X0.170000X0*%
%ADD13RoundRect,0.140000X-0.170000X0.140000X-0.170000X-0.140000X0.170000X-0.140000X0.170000X0.140000X0*%
%ADD14O,0.343000X1.731000*%
%ADD15R,0.600000X0.400000*%
%ADD16R,0.400000X0.600000*%
%ADD17RoundRect,0.250000X-1.000000X-0.650000X1.000000X-0.650000X1.000000X0.650000X-1.000000X0.650000X0*%
%ADD18RoundRect,0.112500X0.112500X-0.187500X0.112500X0.187500X-0.112500X0.187500X-0.112500X-0.187500X0*%
%ADD19RoundRect,0.135000X0.185000X-0.135000X0.185000X0.135000X-0.185000X0.135000X-0.185000X-0.135000X0*%
%ADD20RoundRect,0.140000X0.170000X-0.140000X0.170000X0.140000X-0.170000X0.140000X-0.170000X-0.140000X0*%
%ADD21FreePoly0,180.000000*%
%ADD22FreePoly1,180.000000*%
%ADD23R,0.300000X1.300000*%
%ADD24FreePoly2,180.000000*%
%ADD25R,1.700000X1.300000*%
%ADD26RoundRect,0.140000X0.140000X0.170000X-0.140000X0.170000X-0.140000X-0.170000X0.140000X-0.170000X0*%
%ADD27R,1.300000X1.700000*%
%ADD28RoundRect,0.225000X-0.225000X-0.250000X0.225000X-0.250000X0.225000X0.250000X-0.225000X0.250000X0*%
G04 APERTURE END LIST*
D10*
%TO.C,R1*%
X-16500000Y-16990000D03*
X-16500000Y-18010000D03*
%TD*%
D11*
%TO.C,C2*%
X-6225000Y-5000000D03*
X-7775000Y-5000000D03*
%TD*%
D12*
%TO.C,C6*%
X-21960000Y-15000000D03*
X-21000000Y-15000000D03*
%TD*%
D13*
%TO.C,C4*%
X12500000Y-16020000D03*
X12500000Y-16980000D03*
%TD*%
D14*
%TO.C,U2*%
X10280000Y-10260000D03*
X9630000Y-10260000D03*
X8980000Y-10260000D03*
X8320000Y-10260000D03*
X7670000Y-10260000D03*
X7020000Y-10260000D03*
X6370000Y-10260000D03*
X5720000Y-10260000D03*
X5720000Y-16000000D03*
X6370000Y-16000000D03*
X7020000Y-16000000D03*
X7670000Y-16000000D03*
X8320000Y-16000000D03*
X8980000Y-16000000D03*
X9630000Y-16000000D03*
X10280000Y-16000000D03*
%TD*%
D10*
%TO.C,R4*%
X-2000000Y-4980000D03*
X-2000000Y-6000000D03*
%TD*%
D15*
%TO.C,U1*%
X-14400000Y9447544D03*
X-14400000Y8347544D03*
X-14400000Y7547544D03*
X-14400000Y5947544D03*
X-13500000Y5547544D03*
X-14400000Y5147544D03*
X-13500000Y4747544D03*
X-14400000Y4347544D03*
X-13500000Y3947544D03*
X-14400000Y3547544D03*
X-13500000Y3147544D03*
X-14400000Y2747544D03*
X-13500000Y2347544D03*
X-14400000Y1947544D03*
D16*
X-14550000Y-1452456D03*
X-13750000Y-1452456D03*
X-12950000Y-1452456D03*
X-12150000Y-1452456D03*
X-11750000Y-552456D03*
X-11350000Y-1452456D03*
X-10950000Y-552456D03*
X-10550000Y-1452456D03*
X-10150000Y-552456D03*
X-9750000Y-1452456D03*
X-9350000Y-552456D03*
X-8950000Y-1452456D03*
X-8550000Y-552456D03*
X-8150000Y-1452456D03*
X-7750000Y-552456D03*
X-7350000Y-1452456D03*
X-6550000Y-1452456D03*
X-5750000Y-1452456D03*
X-4950000Y-1452456D03*
D15*
X-5100000Y-452456D03*
X-5100000Y347544D03*
X-6000000Y747544D03*
X-5100000Y1147544D03*
X-6000000Y1547544D03*
X-5100000Y1947544D03*
X-6000000Y2347544D03*
X-5100000Y2747544D03*
X-6000000Y3147544D03*
X-6000000Y3947544D03*
X-5100000Y4347544D03*
X-6000000Y4747544D03*
X-5100000Y5147544D03*
X-6000000Y5547544D03*
X-5100000Y5947544D03*
X-6000000Y6347544D03*
X-6000000Y7147544D03*
X-5100000Y7547544D03*
X-6000000Y7947544D03*
X-5100000Y8347544D03*
X-6000000Y8747544D03*
X-5100000Y9447544D03*
D16*
X-11750000Y5147544D03*
X-10950000Y5147544D03*
X-10150000Y5147544D03*
X-9350000Y5147544D03*
X-8550000Y5147544D03*
X-7750000Y5147544D03*
%TD*%
D17*
%TO.C,D2*%
X-5000000Y-22000000D03*
X-1000000Y-22000000D03*
%TD*%
D18*
%TO.C,D1*%
X-25000000Y-16550000D03*
X-25000000Y-14450000D03*
%TD*%
D19*
%TO.C,R2*%
X5500000Y1990000D03*
X5500000Y3010000D03*
%TD*%
%TO.C,R5*%
X-500000Y-6000000D03*
X-500000Y-4980000D03*
%TD*%
%TO.C,R7*%
X-2000000Y-8500000D03*
X-2000000Y-7480000D03*
%TD*%
D10*
%TO.C,R3*%
X3500000Y3010000D03*
X3500000Y1990000D03*
%TD*%
D20*
%TO.C,C3*%
X12000000Y-9980000D03*
X12000000Y-9020000D03*
%TD*%
D21*
%TO.C,USBC1*%
X9200000Y6507544D03*
D22*
X8400000Y6507544D03*
D23*
X7250000Y6507544D03*
X6250000Y6507544D03*
X5750000Y6507544D03*
X4750000Y6507544D03*
D24*
X2800000Y6507544D03*
X3600000Y6507544D03*
D23*
X4250000Y6507544D03*
X5250000Y6507544D03*
X6750000Y6507544D03*
X7750000Y6507544D03*
%TD*%
D25*
%TO.C,SW2*%
X-23500000Y-2160000D03*
X-23500000Y2160000D03*
%TD*%
D26*
%TO.C,C1*%
X-7020000Y-3500000D03*
X-7980000Y-3500000D03*
%TD*%
D27*
%TO.C,SW1*%
X2840000Y-2500000D03*
X7160000Y-2500000D03*
%TD*%
D28*
%TO.C,C5*%
X-21775000Y-16500000D03*
X-20225000Y-16500000D03*
%TD*%
D14*
%TO.C,U3*%
X14220000Y-15870000D03*
X14870000Y-15870000D03*
X15520000Y-15870000D03*
X16180000Y-15870000D03*
X16830000Y-15870000D03*
X17480000Y-15870000D03*
X18130000Y-15870000D03*
X18780000Y-15870000D03*
X18780000Y-10130000D03*
X18130000Y-10130000D03*
X17480000Y-10130000D03*
X16830000Y-10130000D03*
X16180000Y-10130000D03*
X15520000Y-10130000D03*
X14870000Y-10130000D03*
X14220000Y-10130000D03*
%TD*%
D19*
%TO.C,R6*%
X-500000Y-8500000D03*
X-500000Y-7480000D03*
%TD*%
M02*
