%TF.GenerationSoftware,KiCad,Pcbnew,10.0.7*%
%TF.CreationDate,2026-10-10T23:56:10+09:00*%
%TF.ProjectId,dao_board,64616f5f-626f-4617-9264-2e6b69636164,rev?*%
%TF.SameCoordinates,Original*%
%TF.FileFunction,Copper,L1,Top*%
%TF.FilePolarity,Positive*%
%FSLAX46Y46*%
G04 Gerber Fmt 4.6, Leading zero omitted, Abs format (unit mm)*
G04 Created by KiCad (PCBNEW 10.0.7) date 2026-10-10 23:56:10*
%MOMM*%
%LPD*%
G01*
G04 APERTURE LIST*
G04 Aperture macros list*
%AMRoundRect*
0 Rectangle with rounded corners*
0 $1 Rounding radius*
0 $2 $3 $4 $5 $6 $7 $8 $9 X,Y pos of 4 corners*
0 Add a 4 corners polygon primitive as box body*
4,1,4,$2,$3,$4,$5,$6,$7,$8,$9,$2,$3,0*
0 Add four circle primitives for the rounded corners*
1,1,$1+$1,$2,$3*
1,1,$1+$1,$4,$5*
1,1,$1+$1,$6,$7*
1,1,$1+$1,$8,$9*
0 Add four rect primitives between the rounded corners*
20,1,$1+$1,$2,$3,$4,$5,0*
20,1,$1+$1,$4,$5,$6,$7,0*
20,1,$1+$1,$6,$7,$8,$9,0*
20,1,$1+$1,$8,$9,$2,$3,0*%
%AMFreePoly0*
4,1,17,0.335278,0.685443,0.349923,0.650088,0.349923,-0.649935,0.335278,-0.685290,0.299923,-0.699935,0.000318,-0.699935,-0.000051,-0.700088,-0.300050,-0.700088,-0.335405,-0.685443,-0.350050,-0.650088,-0.350050,0.649935,-0.335405,0.685290,-0.300050,0.699935,-0.000445,0.699935,-0.000076,0.700088,0.299923,0.700088,0.335278,0.685443,0.335278,0.685443,$1*%
%AMFreePoly1*
4,1,17,0.335431,0.685290,0.350076,0.649935,0.350076,-0.650037,0.335431,-0.685392,0.300076,-0.700037,0.000187,-0.700037,0.000127,-0.700062,-0.299898,-0.700062,-0.335253,-0.685417,-0.349898,-0.650062,-0.349898,0.649910,-0.335253,0.685265,-0.299898,0.699910,-0.000009,0.699910,0.000051,0.699935,0.300076,0.699935,0.335431,0.685290,0.335431,0.685290,$1*%
%AMFreePoly2*
4,1,13,0.335227,0.685443,0.349872,0.650088,0.349872,-0.649884,0.335227,-0.685239,0.299872,-0.699884,-0.300152,-0.699884,-0.335507,-0.685239,-0.350152,-0.649884,-0.350152,0.650088,-0.335507,0.685443,-0.300152,0.700088,0.299872,0.700088,0.335227,0.685443,0.335227,0.685443,$1*%
G04 Aperture macros list end*
%TA.AperFunction,SMDPad,CuDef*%
%ADD10RoundRect,0.135000X-0.185000X0.135000X-0.185000X-0.135000X0.185000X-0.135000X0.185000X0.135000X0*%
%TD*%
%TA.AperFunction,SMDPad,CuDef*%
%ADD11RoundRect,0.225000X0.225000X0.250000X-0.225000X0.250000X-0.225000X-0.250000X0.225000X-0.250000X0*%
%TD*%
%TA.AperFunction,ComponentPad*%
%ADD12C,5.300000*%
%TD*%
%TA.AperFunction,SMDPad,CuDef*%
%ADD13RoundRect,0.140000X-0.140000X-0.170000X0.140000X-0.170000X0.140000X0.170000X-0.140000X0.170000X0*%
%TD*%
%TA.AperFunction,SMDPad,CuDef*%
%ADD14C,2.000000*%
%TD*%
%TA.AperFunction,SMDPad,CuDef*%
%ADD15RoundRect,0.140000X-0.170000X0.140000X-0.170000X-0.140000X0.170000X-0.140000X0.170000X0.140000X0*%
%TD*%
%TA.AperFunction,SMDPad,CuDef*%
%ADD16O,0.343000X1.731000*%
%TD*%
%TA.AperFunction,ComponentPad*%
%ADD17RoundRect,0.250000X-0.600000X-0.725000X0.600000X-0.725000X0.600000X0.725000X-0.600000X0.725000X0*%
%TD*%
%TA.AperFunction,ComponentPad*%
%ADD18O,1.700000X1.950000*%
%TD*%
%TA.AperFunction,SMDPad,CuDef*%
%ADD19R,0.600000X0.400000*%
%TD*%
%TA.AperFunction,SMDPad,CuDef*%
%ADD20R,0.400000X0.600000*%
%TD*%
%TA.AperFunction,SMDPad,CuDef*%
%ADD21RoundRect,0.250000X-1.000000X-0.650000X1.000000X-0.650000X1.000000X0.650000X-1.000000X0.650000X0*%
%TD*%
%TA.AperFunction,SMDPad,CuDef*%
%ADD22RoundRect,0.112500X0.112500X-0.187500X0.112500X0.187500X-0.112500X0.187500X-0.112500X-0.187500X0*%
%TD*%
%TA.AperFunction,SMDPad,CuDef*%
%ADD23RoundRect,0.135000X0.185000X-0.135000X0.185000X0.135000X-0.185000X0.135000X-0.185000X-0.135000X0*%
%TD*%
%TA.AperFunction,ComponentPad*%
%ADD24R,2.030000X1.730000*%
%TD*%
%TA.AperFunction,ComponentPad*%
%ADD25O,2.030000X1.730000*%
%TD*%
%TA.AperFunction,SMDPad,CuDef*%
%ADD26RoundRect,0.140000X0.170000X-0.140000X0.170000X0.140000X-0.170000X0.140000X-0.170000X-0.140000X0*%
%TD*%
%TA.AperFunction,ComponentPad*%
%ADD27O,1.200000X2.000000*%
%TD*%
%TA.AperFunction,ComponentPad*%
%ADD28O,1.200000X1.800000*%
%TD*%
%TA.AperFunction,SMDPad,CuDef*%
%ADD29FreePoly0,180.000000*%
%TD*%
%TA.AperFunction,SMDPad,CuDef*%
%ADD30FreePoly1,180.000000*%
%TD*%
%TA.AperFunction,SMDPad,CuDef*%
%ADD31R,0.300000X1.300000*%
%TD*%
%TA.AperFunction,SMDPad,CuDef*%
%ADD32FreePoly2,180.000000*%
%TD*%
%TA.AperFunction,SMDPad,CuDef*%
%ADD33R,1.700000X1.300000*%
%TD*%
%TA.AperFunction,SMDPad,CuDef*%
%ADD34RoundRect,0.140000X0.140000X0.170000X-0.140000X0.170000X-0.140000X-0.170000X0.140000X-0.170000X0*%
%TD*%
%TA.AperFunction,SMDPad,CuDef*%
%ADD35R,1.300000X1.700000*%
%TD*%
%TA.AperFunction,SMDPad,CuDef*%
%ADD36RoundRect,0.225000X-0.225000X-0.250000X0.225000X-0.250000X0.225000X0.250000X-0.225000X0.250000X0*%
%TD*%
%TA.AperFunction,ComponentPad*%
%ADD37RoundRect,0.250000X-0.600000X-0.750000X0.600000X-0.750000X0.600000X0.750000X-0.600000X0.750000X0*%
%TD*%
%TA.AperFunction,ComponentPad*%
%ADD38O,1.700000X2.000000*%
%TD*%
%TA.AperFunction,ComponentPad*%
%ADD39R,1.700000X1.700000*%
%TD*%
%TA.AperFunction,ComponentPad*%
%ADD40C,1.700000*%
%TD*%
%TA.AperFunction,ViaPad*%
%ADD41C,0.800000*%
%TD*%
%TA.AperFunction,ViaPad*%
%ADD42C,0.600000*%
%TD*%
%TA.AperFunction,ViaPad*%
%ADD43C,0.700000*%
%TD*%
%TA.AperFunction,ViaPad*%
%ADD44C,1.000000*%
%TD*%
%TA.AperFunction,Conductor*%
%ADD45C,1.000000*%
%TD*%
%TA.AperFunction,Conductor*%
%ADD46C,0.250000*%
%TD*%
%TA.AperFunction,Conductor*%
%ADD47C,0.600000*%
%TD*%
%TA.AperFunction,Conductor*%
%ADD48C,0.400000*%
%TD*%
G04 APERTURE END LIST*
D10*
%TO.P,R1,1*%
%TO.N,/VBUS_5V*%
X-16500000Y-16990000D03*
%TO.P,R1,2*%
%TO.N,/DISH_LED_5V*%
X-16500000Y-18010000D03*
%TD*%
D11*
%TO.P,C2,1*%
%TO.N,GND*%
X-6225000Y-5000000D03*
%TO.P,C2,2*%
%TO.N,+3V3*%
X-7775000Y-5000000D03*
%TD*%
D12*
%TO.P,H2,*%
%TO.N,*%
X32713900Y-1106400D03*
%TD*%
D13*
%TO.P,C6,1*%
%TO.N,/SCR_5V*%
X-21960000Y-15000000D03*
%TO.P,C6,2*%
%TO.N,GND*%
X-21000000Y-15000000D03*
%TD*%
D14*
%TO.P,TP6,1,1_1*%
%TO.N,+3V3*%
X-6500000Y-12500000D03*
%TD*%
D15*
%TO.P,C4,1*%
%TO.N,GND*%
X12500000Y-16020000D03*
%TO.P,C4,2*%
%TO.N,/VBUS_5V*%
X12500000Y-16980000D03*
%TD*%
D12*
%TO.P,H1,*%
%TO.N,*%
X-38286100Y-1106400D03*
%TD*%
D16*
%TO.P,U2,1,VCC_1*%
%TO.N,/VBUS_5V*%
X10280000Y-10260000D03*
%TO.P,U2,2,SER_IN_2*%
%TO.N,/LED_DATA*%
X9630000Y-10260000D03*
%TO.P,U2,3,DRAIN0_3*%
%TO.N,/LED_K1*%
X8980000Y-10260000D03*
%TO.P,U2,4,DRAIN1_4*%
%TO.N,/LED_K2*%
X8320000Y-10260000D03*
%TO.P,U2,5,DRAIN2_5*%
%TO.N,/LED_K3*%
X7670000Y-10260000D03*
%TO.P,U2,6,DRAIN3_6*%
%TO.N,/LED_K4*%
X7020000Y-10260000D03*
%TO.P,U2,7,~{CLR}_7*%
%TO.N,/VBUS_5V*%
X6370000Y-10260000D03*
%TO.P,U2,8,~{G}_8*%
%TO.N,GND*%
X5720000Y-10260000D03*
%TO.P,U2,9,SER_OUT_9*%
%TO.N,/LED_CHAIN*%
X5720000Y-16000000D03*
%TO.P,U2,10,RCK_10*%
%TO.N,/LED_LATCH*%
X6370000Y-16000000D03*
%TO.P,U2,11,DRAIN4_11*%
%TO.N,/LED_K5*%
X7020000Y-16000000D03*
%TO.P,U2,12,DRAIN5_12*%
%TO.N,/LED_K6*%
X7670000Y-16000000D03*
%TO.P,U2,13,DRAIN6_13*%
%TO.N,/LED_K7*%
X8320000Y-16000000D03*
%TO.P,U2,14,DRAIN7_14*%
%TO.N,/LED_K8*%
X8980000Y-16000000D03*
%TO.P,U2,15,SRCK_15*%
%TO.N,/LED_CLK*%
X9630000Y-16000000D03*
%TO.P,U2,16,GND_16*%
%TO.N,GND*%
X10280000Y-16000000D03*
%TD*%
D10*
%TO.P,R4,1*%
%TO.N,+3V3*%
X-2000000Y-4980000D03*
%TO.P,R4,2*%
%TO.N,/RD2*%
X-2000000Y-6000000D03*
%TD*%
D14*
%TO.P,TP4,1,1_1*%
%TO.N,/RD2*%
X-3000000Y-12500000D03*
%TD*%
D17*
%TO.P,J12,1,Pin_1_1*%
%TO.N,/START*%
X-39500000Y10500000D03*
D18*
%TO.P,J12,2,Pin_2_2*%
%TO.N,/LED_K8*%
X-37000000Y10500000D03*
%TO.P,J12,3,Pin_3_3*%
%TO.N,/KEY_LED_5V*%
X-34500000Y10500000D03*
%TO.P,J12,4,Pin_4_4*%
%TO.N,GND*%
X-32000000Y10500000D03*
%TD*%
D19*
%TO.P,U1,1,GND_1*%
%TO.N,GND*%
X-14400000Y9447544D03*
%TO.P,U1,2,GND_2*%
X-14400000Y8347544D03*
%TO.P,U1,3,P1.10_3*%
%TO.N,unconnected-(U1-P1.10-Pad3)*%
X-14400000Y7547544D03*
%TO.P,U1,4,P1.11_4*%
%TO.N,unconnected-(U1-P1.11-Pad4)*%
X-14400000Y5947544D03*
%TO.P,U1,5,P1.12_5*%
%TO.N,unconnected-(U1-P1.12-Pad5)*%
X-13500000Y5547544D03*
%TO.P,U1,6,P1.13_6*%
%TO.N,unconnected-(U1-P1.13-Pad6)*%
X-14400000Y5147544D03*
%TO.P,U1,7,P1.14_7*%
%TO.N,unconnected-(U1-P1.14-Pad7)*%
X-13500000Y4747544D03*
%TO.P,U1,8,P1.15_8*%
%TO.N,unconnected-(U1-P1.15-Pad8)*%
X-14400000Y4347544D03*
%TO.P,U1,9,P0.03_9*%
%TO.N,/K2*%
X-13500000Y3947544D03*
%TO.P,U1,10,P0.29_10*%
%TO.N,/K6*%
X-14400000Y3547544D03*
%TO.P,U1,11,P0.02_11*%
%TO.N,/K1*%
X-13500000Y3147544D03*
%TO.P,U1,12,P0.31_12*%
%TO.N,unconnected-(U1-P0.31-Pad12)*%
X-14400000Y2747544D03*
%TO.P,U1,13,P0.28_13*%
%TO.N,/K5*%
X-13500000Y2347544D03*
%TO.P,U1,14,P0.30_14*%
%TO.N,/K7*%
X-14400000Y1947544D03*
D20*
%TO.P,U1,15,GND_15*%
%TO.N,GND*%
X-14550000Y-1452456D03*
%TO.P,U1,16,P0.27_16*%
%TO.N,unconnected-(U1-P0.27-Pad16)*%
X-13750000Y-1452456D03*
%TO.P,U1,17,P0.00_17*%
%TO.N,/START*%
X-12950000Y-1452456D03*
%TO.P,U1,18,P0.01_18*%
%TO.N,/SELECT*%
X-12150000Y-1452456D03*
%TO.P,U1,19,P0.26_19*%
%TO.N,/EXP7*%
X-11750000Y-552456D03*
%TO.P,U1,20,P0.04_20*%
%TO.N,/K3*%
X-11350000Y-1452456D03*
%TO.P,U1,21,P0.05_21*%
%TO.N,/K4*%
X-10950000Y-552456D03*
%TO.P,U1,22,P0.06_22*%
%TO.N,/MODE_PAIR*%
X-10550000Y-1452456D03*
%TO.P,U1,23,P0.07_23*%
%TO.N,unconnected-(U1-P0.07-Pad23)*%
X-10150000Y-552456D03*
%TO.P,U1,24,P0.08_24*%
%TO.N,unconnected-(U1-P0.08-Pad24)*%
X-9750000Y-1452456D03*
%TO.P,U1,25,P1.08_25*%
%TO.N,unconnected-(U1-P1.08-Pad25)*%
X-9350000Y-552456D03*
%TO.P,U1,26,P1.09_26*%
%TO.N,unconnected-(U1-P1.09-Pad26)*%
X-8950000Y-1452456D03*
%TO.P,U1,27,P0.11_27*%
%TO.N,unconnected-(U1-P0.11-Pad27)*%
X-8550000Y-552456D03*
%TO.P,U1,28,VDD_28*%
%TO.N,+3V3*%
X-8150000Y-1452456D03*
%TO.P,U1,29,P0.12_29*%
%TO.N,unconnected-(U1-P0.12-Pad29)*%
X-7750000Y-552456D03*
%TO.P,U1,30,VDDH_30*%
%TO.N,/VBUS_5V*%
X-7350000Y-1452456D03*
%TO.P,U1,31,DCCH_31*%
%TO.N,unconnected-(U1-DCCH-Pad31)*%
X-6550000Y-1452456D03*
%TO.P,U1,32,VBUS_32*%
%TO.N,/VBUS_5V*%
X-5750000Y-1452456D03*
%TO.P,U1,33,GND_33*%
%TO.N,GND*%
X-4950000Y-1452456D03*
D19*
%TO.P,U1,34,D-_34*%
%TO.N,/USB_D-*%
X-5100000Y-452456D03*
%TO.P,U1,35,D+_35*%
%TO.N,/USB_D+*%
X-5100000Y347544D03*
%TO.P,U1,36,P0.14_36*%
%TO.N,/RD2*%
X-6000000Y747544D03*
%TO.P,U1,37,P0.13_37*%
%TO.N,/RD1*%
X-5100000Y1147544D03*
%TO.P,U1,38,P0.16_38*%
%TO.N,/LED_CLK*%
X-6000000Y1547544D03*
%TO.P,U1,39,P0.15_39*%
%TO.N,/LED_DATA*%
X-5100000Y1947544D03*
%TO.P,U1,40,P0.18_40*%
%TO.N,/nRESET*%
X-6000000Y2347544D03*
%TO.P,U1,41,P0.17_41*%
%TO.N,/LED_LATCH*%
X-5100000Y2747544D03*
%TO.P,U1,42,P0.19_42*%
%TO.N,/EXP0*%
X-6000000Y3147544D03*
%TO.P,U1,43,P0.21_43*%
%TO.N,/EXP2*%
X-6000000Y3947544D03*
%TO.P,U1,44,P0.20_44*%
%TO.N,/EXP1*%
X-5100000Y4347544D03*
%TO.P,U1,45,P0.23_45*%
%TO.N,/EXP4*%
X-6000000Y4747544D03*
%TO.P,U1,46,P0.22_46*%
%TO.N,/EXP3*%
X-5100000Y5147544D03*
%TO.P,U1,47,P1.00_47*%
%TO.N,unconnected-(U1-P1.00-Pad47)*%
X-6000000Y5547544D03*
%TO.P,U1,48,P0.24_48*%
%TO.N,/EXP5*%
X-5100000Y5947544D03*
%TO.P,U1,49,P0.25_49*%
%TO.N,/EXP6*%
X-6000000Y6347544D03*
%TO.P,U1,50,P1.02_50*%
%TO.N,unconnected-(U1-P1.02-Pad50)*%
X-6000000Y7147544D03*
%TO.P,U1,51,SWDIO_51*%
%TO.N,/SWDIO*%
X-5100000Y7547544D03*
%TO.P,U1,52,P0.09_52*%
%TO.N,unconnected-(U1-P0.09-Pad52)*%
X-6000000Y7947544D03*
%TO.P,U1,53,SWDCLK_53*%
%TO.N,/SWDCLK*%
X-5100000Y8347544D03*
%TO.P,U1,54,P0.10_54*%
%TO.N,unconnected-(U1-P0.10-Pad54)*%
X-6000000Y8747544D03*
%TO.P,U1,55,GND_55*%
%TO.N,GND*%
X-5100000Y9447544D03*
D20*
%TO.P,U1,56,P1.04_56*%
%TO.N,unconnected-(U1-P1.04-Pad56)*%
X-11750000Y5147544D03*
%TO.P,U1,57,P1.06_57*%
%TO.N,unconnected-(U1-P1.06-Pad57)*%
X-10950000Y5147544D03*
%TO.P,U1,58,P1.07_58*%
%TO.N,unconnected-(U1-P1.07-Pad58)*%
X-10150000Y5147544D03*
%TO.P,U1,59,P1.05_59*%
%TO.N,unconnected-(U1-P1.05-Pad59)*%
X-9350000Y5147544D03*
%TO.P,U1,60,P1.03_60*%
%TO.N,unconnected-(U1-P1.03-Pad60)*%
X-8550000Y5147544D03*
%TO.P,U1,61,P1.01_61*%
%TO.N,unconnected-(U1-P1.01-Pad61)*%
X-7750000Y5147544D03*
%TD*%
D14*
%TO.P,TP3,1,1_1*%
%TO.N,/RD1*%
X500000Y-12500000D03*
%TD*%
D21*
%TO.P,D2,1,K_1*%
%TO.N,/KEY_LED_5V*%
X-5000000Y-22000000D03*
%TO.P,D2,2,A_2*%
%TO.N,/VBUS_5V*%
X-1000000Y-22000000D03*
%TD*%
D22*
%TO.P,D1,1,K_1*%
%TO.N,/SCR_5V*%
X-25000000Y-16550000D03*
%TO.P,D1,2,A_2*%
%TO.N,/VBUS_5V*%
X-25000000Y-14450000D03*
%TD*%
D17*
%TO.P,J6,1,Pin_1_1*%
%TO.N,/K2*%
X8500000Y-30500000D03*
D18*
%TO.P,J6,2,Pin_2_2*%
%TO.N,/LED_K2*%
X11000000Y-30500000D03*
%TO.P,J6,3,Pin_3_3*%
%TO.N,/KEY_LED_5V*%
X13500000Y-30500000D03*
%TO.P,J6,4,Pin_4_4*%
%TO.N,GND*%
X16000000Y-30500000D03*
%TD*%
D12*
%TO.P,H3,*%
%TO.N,*%
X-38286100Y-31106400D03*
%TD*%
D17*
%TO.P,J11,1,Pin_1_1*%
%TO.N,/K7*%
X-30000000Y-39000000D03*
D18*
%TO.P,J11,2,Pin_2_2*%
%TO.N,/LED_K7*%
X-27500000Y-39000000D03*
%TO.P,J11,3,Pin_3_3*%
%TO.N,/KEY_LED_5V*%
X-25000000Y-39000000D03*
%TO.P,J11,4,Pin_4_4*%
%TO.N,GND*%
X-22500000Y-39000000D03*
%TD*%
D12*
%TO.P,H4,*%
%TO.N,*%
X32713900Y-31106400D03*
%TD*%
D17*
%TO.P,J10,1,Pin_1_1*%
%TO.N,/K6*%
X-22500000Y-30500000D03*
D18*
%TO.P,J10,2,Pin_2_2*%
%TO.N,/LED_K6*%
X-20000000Y-30500000D03*
%TO.P,J10,3,Pin_3_3*%
%TO.N,/KEY_LED_5V*%
X-17500000Y-30500000D03*
%TO.P,J10,4,Pin_4_4*%
%TO.N,GND*%
X-15000000Y-30500000D03*
%TD*%
D23*
%TO.P,R2,1*%
%TO.N,GND*%
X5500000Y1990000D03*
%TO.P,R2,2*%
%TO.N,Net-(USBC1-CC1)*%
X5500000Y3010000D03*
%TD*%
D17*
%TO.P,J13,1,Pin_1_1*%
%TO.N,/SELECT*%
X26500000Y10500000D03*
D18*
%TO.P,J13,2,Pin_2_2*%
%TO.N,/LED_K9*%
X29000000Y10500000D03*
%TO.P,J13,3,Pin_3_3*%
%TO.N,/KEY_LED_5V*%
X31500000Y10500000D03*
%TO.P,J13,4,Pin_4_4*%
%TO.N,GND*%
X34000000Y10500000D03*
%TD*%
D14*
%TO.P,TP1,1,1_1*%
%TO.N,/SCR_5V*%
X-35000000Y-15000000D03*
%TD*%
D24*
%TO.P,J3,1,Pin_1_1*%
%TO.N,+3V3*%
X17500000Y4420000D03*
D25*
%TO.P,J3,2,Pin_2_2*%
%TO.N,/SWDIO*%
X17500000Y6960000D03*
%TO.P,J3,3,Pin_3_3*%
%TO.N,/SWDCLK*%
X17500000Y9500000D03*
%TO.P,J3,4,Pin_4_4*%
%TO.N,GND*%
X17500000Y12040000D03*
%TD*%
D23*
%TO.P,R5,1*%
%TO.N,/RD1*%
X-500000Y-6000000D03*
%TO.P,R5,2*%
%TO.N,+3V3*%
X-500000Y-4980000D03*
%TD*%
%TO.P,R7,1*%
%TO.N,Net-(J14-Pin_2)*%
X-2000000Y-8500000D03*
%TO.P,R7,2*%
%TO.N,/RD2*%
X-2000000Y-7480000D03*
%TD*%
D10*
%TO.P,R3,1*%
%TO.N,Net-(USBC1-CC2)*%
X3500000Y3010000D03*
%TO.P,R3,2*%
%TO.N,GND*%
X3500000Y1990000D03*
%TD*%
D14*
%TO.P,TP2,1,1_1*%
%TO.N,GND*%
X-31000000Y-15000000D03*
%TD*%
D26*
%TO.P,C3,1*%
%TO.N,GND*%
X12000000Y-9980000D03*
%TO.P,C3,2*%
%TO.N,/VBUS_5V*%
X12000000Y-9020000D03*
%TD*%
D17*
%TO.P,J8,1,Pin_1_1*%
%TO.N,/K4*%
X-7000000Y-30500000D03*
D18*
%TO.P,J8,2,Pin_2_2*%
%TO.N,/LED_K4*%
X-4500000Y-30500000D03*
%TO.P,J8,3,Pin_3_3*%
%TO.N,/KEY_LED_5V*%
X-2000000Y-30500000D03*
%TO.P,J8,4,Pin_4_4*%
%TO.N,GND*%
X500000Y-30500000D03*
%TD*%
D27*
%TO.P,USBC1,1,EH_1*%
%TO.N,GND*%
X1670000Y7267544D03*
D28*
%TO.P,USBC1,2,EH_2*%
X1670000Y11447544D03*
%TO.P,USBC1,3,EH_3*%
X10330000Y11447544D03*
D27*
%TO.P,USBC1,4,EH_4*%
X10330000Y7267544D03*
D29*
%TO.P,USBC1,A1B12,GND_A1B12*%
X9200000Y6507544D03*
D30*
%TO.P,USBC1,A4B9,VBUS_A4B9*%
%TO.N,/VBUS_5V*%
X8400000Y6507544D03*
D31*
%TO.P,USBC1,A5,CC1_A5*%
%TO.N,Net-(USBC1-CC1)*%
X7250000Y6507544D03*
%TO.P,USBC1,A6,DP1_A6*%
%TO.N,/USB_D+*%
X6250000Y6507544D03*
%TO.P,USBC1,A7,DN1_A7*%
%TO.N,/USB_D-*%
X5750000Y6507544D03*
%TO.P,USBC1,A8,SBU1_A8*%
%TO.N,unconnected-(USBC1-SBU1-PadA8)*%
X4750000Y6507544D03*
D32*
%TO.P,USBC1,B1A12,GND_B1A12*%
%TO.N,GND*%
X2800000Y6507544D03*
%TO.P,USBC1,B4A9,VBUS_B4A9*%
%TO.N,/VBUS_5V*%
X3600000Y6507544D03*
D31*
%TO.P,USBC1,B5,CC2_B5*%
%TO.N,Net-(USBC1-CC2)*%
X4250000Y6507544D03*
%TO.P,USBC1,B6,DP2_B6*%
%TO.N,/USB_D+*%
X5250000Y6507544D03*
%TO.P,USBC1,B7,DN2_B7*%
%TO.N,/USB_D-*%
X6750000Y6507544D03*
%TO.P,USBC1,B8,SBU2_B8*%
%TO.N,unconnected-(USBC1-SBU2-PadB8)*%
X7750000Y6507544D03*
%TD*%
D33*
%TO.P,SW2,1,1_1*%
%TO.N,/MODE_PAIR*%
X-23500000Y-2160000D03*
%TO.P,SW2,2,2_2*%
%TO.N,GND*%
X-23500000Y2160000D03*
%TD*%
D17*
%TO.P,J14,1,Pin_1_1*%
%TO.N,Net-(J14-Pin_1)*%
X-30000000Y-22000000D03*
D18*
%TO.P,J14,2,Pin_2_2*%
%TO.N,Net-(J14-Pin_2)*%
X-27500000Y-22000000D03*
%TO.P,J14,3,Pin_3_3*%
%TO.N,/SCR_5V*%
X-25000000Y-22000000D03*
%TO.P,J14,4,Pin_4_4*%
%TO.N,GND*%
X-22500000Y-22000000D03*
%TD*%
D34*
%TO.P,C1,1*%
%TO.N,GND*%
X-7020000Y-3500000D03*
%TO.P,C1,2*%
%TO.N,+3V3*%
X-7980000Y-3500000D03*
%TD*%
D35*
%TO.P,SW1,1,1_1*%
%TO.N,/nRESET*%
X2840000Y-2500000D03*
%TO.P,SW1,2,2_2*%
%TO.N,GND*%
X7160000Y-2500000D03*
%TD*%
D36*
%TO.P,C5,1*%
%TO.N,/SCR_5V*%
X-21775000Y-16500000D03*
%TO.P,C5,2*%
%TO.N,GND*%
X-20225000Y-16500000D03*
%TD*%
D37*
%TO.P,J1,1,Pin_1_1*%
%TO.N,/DISH_LED_5V*%
X-14500000Y-22000000D03*
D38*
%TO.P,J1,2,Pin_2_2*%
%TO.N,GND*%
X-12000000Y-22000000D03*
%TD*%
D14*
%TO.P,TP5,1,1_1*%
%TO.N,/VBUS_5V*%
X20000000Y-5000000D03*
%TD*%
D17*
%TO.P,J9,1,Pin_1_1*%
%TO.N,/K5*%
X-14500000Y-39000000D03*
D18*
%TO.P,J9,2,Pin_2_2*%
%TO.N,/LED_K5*%
X-12000000Y-39000000D03*
%TO.P,J9,3,Pin_3_3*%
%TO.N,/KEY_LED_5V*%
X-9500000Y-39000000D03*
%TO.P,J9,4,Pin_4_4*%
%TO.N,GND*%
X-7000000Y-39000000D03*
%TD*%
D17*
%TO.P,J7,1,Pin_1_1*%
%TO.N,/K3*%
X1000000Y-39000000D03*
D18*
%TO.P,J7,2,Pin_2_2*%
%TO.N,/LED_K3*%
X3500000Y-39000000D03*
%TO.P,J7,3,Pin_3_3*%
%TO.N,/KEY_LED_5V*%
X6000000Y-39000000D03*
%TO.P,J7,4,Pin_4_4*%
%TO.N,GND*%
X8500000Y-39000000D03*
%TD*%
D17*
%TO.P,J5,1,Pin_1_1*%
%TO.N,/K1*%
X16500000Y-39000000D03*
D18*
%TO.P,J5,2,Pin_2_2*%
%TO.N,/LED_K1*%
X19000000Y-39000000D03*
%TO.P,J5,3,Pin_3_3*%
%TO.N,/KEY_LED_5V*%
X21500000Y-39000000D03*
%TO.P,J5,4,Pin_4_4*%
%TO.N,GND*%
X24000000Y-39000000D03*
%TD*%
D39*
%TO.P,J4,1,Pin_1_1*%
%TO.N,+3V3*%
X32460000Y-9000000D03*
D40*
%TO.P,J4,2,Pin_2_2*%
%TO.N,GND*%
X35000000Y-9000000D03*
%TO.P,J4,3,Pin_3_3*%
%TO.N,/EXP0*%
X32460000Y-11540000D03*
%TO.P,J4,4,Pin_4_4*%
%TO.N,/EXP1*%
X35000000Y-11540000D03*
%TO.P,J4,5,Pin_5_5*%
%TO.N,/EXP2*%
X32460000Y-14080000D03*
%TO.P,J4,6,Pin_6_6*%
%TO.N,/EXP3*%
X35000000Y-14080000D03*
%TO.P,J4,7,Pin_7_7*%
%TO.N,/EXP4*%
X32460000Y-16620000D03*
%TO.P,J4,8,Pin_8_8*%
%TO.N,/EXP5*%
X35000000Y-16620000D03*
%TO.P,J4,9,Pin_9_9*%
%TO.N,/EXP6*%
X32460000Y-19160000D03*
%TO.P,J4,10,Pin_10_10*%
%TO.N,/EXP7*%
X35000000Y-19160000D03*
%TD*%
D16*
%TO.P,U3,1,VCC_1*%
%TO.N,/VBUS_5V*%
X14220000Y-15870000D03*
%TO.P,U3,2,SER_IN_2*%
%TO.N,/LED_CHAIN*%
X14870000Y-15870000D03*
%TO.P,U3,3,DRAIN0_3*%
%TO.N,/LED_K9*%
X15520000Y-15870000D03*
%TO.P,U3,4,DRAIN1_4*%
%TO.N,unconnected-(U3-DRAIN1-Pad4)*%
X16180000Y-15870000D03*
%TO.P,U3,5,DRAIN2_5*%
%TO.N,unconnected-(U3-DRAIN2-Pad5)*%
X16830000Y-15870000D03*
%TO.P,U3,6,DRAIN3_6*%
%TO.N,unconnected-(U3-DRAIN3-Pad6)*%
X17480000Y-15870000D03*
%TO.P,U3,7,~{CLR}_7*%
%TO.N,/VBUS_5V*%
X18130000Y-15870000D03*
%TO.P,U3,8,~{G}_8*%
%TO.N,GND*%
X18780000Y-15870000D03*
%TO.P,U3,9,SER_OUT_9*%
%TO.N,unconnected-(U3-SER_OUT-Pad9)*%
X18780000Y-10130000D03*
%TO.P,U3,10,RCK_10*%
%TO.N,/LED_LATCH*%
X18130000Y-10130000D03*
%TO.P,U3,11,DRAIN4_11*%
%TO.N,unconnected-(U3-DRAIN4-Pad11)*%
X17480000Y-10130000D03*
%TO.P,U3,12,DRAIN5_12*%
%TO.N,unconnected-(U3-DRAIN5-Pad12)*%
X16830000Y-10130000D03*
%TO.P,U3,13,DRAIN6_13*%
%TO.N,unconnected-(U3-DRAIN6-Pad13)*%
X16180000Y-10130000D03*
%TO.P,U3,14,DRAIN7_14*%
%TO.N,unconnected-(U3-DRAIN7-Pad14)*%
X15520000Y-10130000D03*
%TO.P,U3,15,SRCK_15*%
%TO.N,/LED_CLK*%
X14870000Y-10130000D03*
%TO.P,U3,16,GND_16*%
%TO.N,GND*%
X14220000Y-10130000D03*
%TD*%
D23*
%TO.P,R6,1*%
%TO.N,Net-(J14-Pin_1)*%
X-500000Y-8500000D03*
%TO.P,R6,2*%
%TO.N,/RD1*%
X-500000Y-7480000D03*
%TD*%
D41*
%TO.N,/VBUS_5V*%
X-10487347Y-11487347D03*
X-5750000Y-2152456D03*
X-19487347Y-11487347D03*
X15500000Y-19000000D03*
X-1844343Y1344343D03*
X20500000Y-13500000D03*
X1500000Y4000000D03*
X7500000Y4000000D03*
D42*
%TO.N,GND*%
X7500000Y-1500000D03*
X10500000Y-5500000D03*
X9000000Y-1000000D03*
X12000000Y-26500000D03*
X-17000000Y-34000000D03*
X-23000000Y3500000D03*
X13000000Y11500000D03*
X-13000000Y-33500000D03*
X-19625000Y-625000D03*
X-6550000Y-4877402D03*
X11000000Y-7500000D03*
X-10500000Y-8000000D03*
X-23000000Y8000000D03*
X-1981270Y-3577751D03*
X-13000000Y-3375000D03*
X13000000Y-8000000D03*
X2000000Y1500000D03*
X-16500000Y-1500000D03*
X11500000Y-19500000D03*
X-500000Y4000000D03*
X-22133883Y2250001D03*
X-8000000Y-6500000D03*
X12500000Y-28500000D03*
X-6000000Y-6594120D03*
X-6500000Y-32500000D03*
X-31000000Y-15000000D03*
X1176682Y176685D03*
X9000000Y-5000000D03*
X2800000Y6507544D03*
X-20000000Y1000000D03*
X9159898Y6500000D03*
D43*
%TO.N,+3V3*%
X-5500000Y-14000000D03*
X29000000Y-7500000D03*
X26000000Y-5000000D03*
X-9101041Y-8898959D03*
X-7185336Y-5894120D03*
X13500000Y-3500000D03*
D41*
%TO.N,/SCR_5V*%
X-25000000Y-18500000D03*
X-31500000Y-17500000D03*
D42*
%TO.N,/LED_DATA*%
X-3500000Y-500000D03*
X-3500000Y1244344D03*
%TO.N,/LED_K1*%
X9000000Y-7000000D03*
X2307888Y-8308228D03*
%TO.N,/LED_K2*%
X8199997Y-7000000D03*
X2250797Y-9233945D03*
%TO.N,/LED_K3*%
X7399994Y-7000000D03*
X2453622Y-10201343D03*
%TO.N,/LED_K4*%
X6599991Y-7000000D03*
X2500000Y-11000000D03*
%TO.N,/LED_CHAIN*%
X6000000Y-18000000D03*
X14500000Y-18000000D03*
%TO.N,/LED_LATCH*%
X9333720Y-12767345D03*
X-2759549Y1547225D03*
X15495000Y-12235871D03*
X-2934313Y-1125000D03*
%TO.N,/LED_K5*%
X10500000Y-22500000D03*
X1500000Y-25500000D03*
%TO.N,/LED_K6*%
X1500000Y-24500000D03*
X10558058Y-20941942D03*
%TO.N,/LED_K7*%
X1500000Y-23500000D03*
X10000000Y-19500000D03*
%TO.N,/LED_K8*%
X9000000Y-17375000D03*
X-37000000Y5000000D03*
%TO.N,/LED_CLK*%
X-2500000Y-2000000D03*
X14845000Y-13000000D03*
X-7000000Y1500000D03*
X5500000Y-12500000D03*
X9655000Y-13500000D03*
%TO.N,/RD2*%
X-9000000Y-3000000D03*
X-4000000Y-8875000D03*
X-6000000Y-500000D03*
X-4000000Y-10500000D03*
%TO.N,/START*%
X-14500000Y0D03*
D44*
%TO.N,/KEY_LED_5V*%
X12500000Y-22500000D03*
X-4000000Y-24000000D03*
X-7500000Y-25000000D03*
D42*
%TO.N,/K2*%
X-10066942Y-5566942D03*
X1500000Y-19500000D03*
X-10000000Y500000D03*
X4048500Y-20000000D03*
%TO.N,/K6*%
X-28500000Y-30500000D03*
X-25625000Y-1500000D03*
X-26124999Y-4991117D03*
%TO.N,/K1*%
X-24131374Y-6868626D03*
X-21250000Y-5314003D03*
%TO.N,/K5*%
X-22000000Y-4689003D03*
X-24697061Y-6302939D03*
X-17000000Y-42075000D03*
%TO.N,/K7*%
X-34125000Y-35000000D03*
X-25317817Y-5798298D03*
X-25000000Y-2000000D03*
%TO.N,/SELECT*%
X14000000Y-2500000D03*
X1000000Y-9500000D03*
X-11988381Y-3122194D03*
X-12449999Y-580951D03*
%TO.N,/EXP7*%
X-31565687Y1565687D03*
X-30065687Y-5065687D03*
X-11650504Y-552456D03*
%TO.N,/K3*%
X-20000000Y-7000000D03*
X-23000000Y-8000000D03*
%TO.N,/K4*%
X-20625000Y-6000000D03*
X-16500000Y-625000D03*
X-11000000Y-30500000D03*
X-13000000Y0D03*
X-21500000Y-33000000D03*
X-23565687Y-7434313D03*
X-32125000Y-33000000D03*
%TO.N,/MODE_PAIR*%
X-11000000Y-4000000D03*
X-23000000Y-3500000D03*
%TO.N,/RD1*%
X-3124337Y3815687D03*
X0Y-10500000D03*
X-5100000Y1147544D03*
X500000Y-6000000D03*
X-3000000Y2500000D03*
X500000Y-8000000D03*
%TO.N,/nRESET*%
X-491117Y-1124999D03*
X-7000000Y2500000D03*
%TO.N,/EXP0*%
X24500000Y-14500000D03*
X-29500000Y-4500000D03*
X-29500000Y2500000D03*
X29000000Y-14000000D03*
X27458058Y-15041942D03*
X26324174Y-15675826D03*
X-31000000Y1000000D03*
X30000000Y-11000000D03*
%TO.N,/EXP2*%
X-8500000Y4000000D03*
X29000000Y-12000000D03*
X30000000Y-7000000D03*
X29000000Y-3000000D03*
X29000000Y-9500000D03*
%TO.N,/EXP1*%
X15000000Y3000000D03*
X14000000Y8000000D03*
X-4000000Y3875000D03*
%TO.N,/EXP4*%
X26591942Y-12408058D03*
X-7000000Y4500000D03*
X14000000Y2500000D03*
X13000000Y8000000D03*
%TO.N,/EXP3*%
X26458058Y-14041942D03*
X-2339766Y4577016D03*
%TO.N,/EXP5*%
X-1774078Y5142704D03*
%TO.N,/EXP6*%
X-750000Y5250000D03*
%TO.N,/SWDIO*%
X-2000000Y9000000D03*
X-5100000Y7547544D03*
%TO.N,/SWDCLK*%
X-2620758Y9504642D03*
X-5100000Y8347544D03*
%TO.N,Net-(J14-Pin_2)*%
X-2000000Y-8500000D03*
X-11500000Y-10500000D03*
X-21491117Y-9624999D03*
X-8500000Y-11500000D03*
X-18858413Y-8287373D03*
X-10000000Y-9500000D03*
%TO.N,Net-(USBC1-CC2)*%
X4558674Y4441326D03*
X4500000Y8000000D03*
%TO.N,Net-(J14-Pin_1)*%
X-5000000Y-15000000D03*
X-625000Y-8500000D03*
X-22000000Y-9000000D03*
X-19000000Y-7500000D03*
%TD*%
%TO.N,/VBUS_5V*%
D45*
X20000000Y-5000000D02*
X20000000Y-13000000D01*
D46*
X6370000Y-10260000D02*
X6370000Y-11006157D01*
D45*
X20000000Y-13000000D02*
X20500000Y-13500000D01*
X15500000Y-19000000D02*
X13500000Y-19000000D01*
D47*
X-19487347Y-11487347D02*
X-16500000Y-14474694D01*
D46*
X12500000Y-16980000D02*
X12500000Y-18000000D01*
X14664343Y-14679500D02*
X14220000Y-15123843D01*
D47*
X-7250000Y-2252456D02*
X-5850000Y-2252456D01*
X-1844343Y1344343D02*
X-1688686Y1500000D01*
X-1000000Y-22000000D02*
X-8500000Y-14500000D01*
D45*
X13500000Y-19000000D02*
X12500000Y-18000000D01*
D47*
X-16500000Y-14474694D02*
X-16500000Y-16990000D01*
X-7350000Y-1452456D02*
X-7350000Y-2152456D01*
X-1688686Y1500000D02*
X-1000000Y1500000D01*
D45*
X12000000Y-4500000D02*
X13000000Y-4500000D01*
D46*
X11690001Y-9020000D02*
X12000000Y-9020000D01*
X10280000Y-10260000D02*
X11520000Y-9020000D01*
D47*
X-5850000Y-2252456D02*
X-5750000Y-2152456D01*
D45*
X12000000Y-4500000D02*
X12000000Y-8000000D01*
D46*
X12000000Y-9020000D02*
X12000000Y-8000000D01*
D47*
X-10487347Y-11487347D02*
X-10487347Y-14012653D01*
D46*
X13110000Y-16980000D02*
X12500000Y-16980000D01*
D45*
X13000000Y-4500000D02*
X13500000Y-5000000D01*
D46*
X17712000Y-14679500D02*
X14664343Y-14679500D01*
X14220000Y-15123843D02*
X14220000Y-15870000D01*
X6370000Y-11006157D02*
X6814343Y-11450500D01*
X1500000Y4000000D02*
X1645210Y4000000D01*
X8400000Y4900000D02*
X7500000Y4000000D01*
X1645210Y4000000D02*
X3600000Y5954790D01*
D47*
X-25000000Y-14450000D02*
X-22037347Y-11487347D01*
X-10487347Y-14012653D02*
X-10000000Y-14500000D01*
X-8500000Y-14500000D02*
X-10000000Y-14500000D01*
X-1000000Y1500000D02*
X1500000Y4000000D01*
D46*
X11520000Y-9020000D02*
X12000000Y-9020000D01*
X3600000Y5954790D02*
X3600000Y6507544D01*
D47*
X-5750000Y-2152456D02*
X-5750000Y-1452456D01*
D46*
X8400000Y6507544D02*
X8400000Y4900000D01*
X18130000Y-15870000D02*
X18130000Y-15097500D01*
D45*
X12000000Y-500000D02*
X12000000Y-4500000D01*
X13500000Y-5000000D02*
X20000000Y-5000000D01*
D46*
X14220000Y-15870000D02*
X13110000Y-16980000D01*
X6814343Y-11450500D02*
X9862000Y-11450500D01*
X11270000Y-10042500D02*
X11270000Y-9440001D01*
X18130000Y-15097500D02*
X17712000Y-14679500D01*
D45*
X7500000Y4000000D02*
X12000000Y-500000D01*
D46*
X9862000Y-11450500D02*
X11270000Y-10042500D01*
X11270000Y-9440001D02*
X11690001Y-9020000D01*
D47*
X-7350000Y-2152456D02*
X-7250000Y-2252456D01*
X-22037347Y-11487347D02*
X-19487347Y-11487347D01*
%TO.N,/DISH_LED_5V*%
X-16500000Y-20000000D02*
X-14500000Y-22000000D01*
X-16500000Y-18010000D02*
X-16500000Y-20000000D01*
%TO.N,GND*%
D46*
X12000000Y-9980000D02*
X12000000Y-11000000D01*
X-6000000Y-5000000D02*
X-6225000Y-5000000D01*
X14220000Y-10130000D02*
X14220000Y-14300000D01*
X1670000Y11447544D02*
X10330000Y11447544D01*
X14290500Y-14229500D02*
X14220000Y-14300000D01*
X10280000Y-16000000D02*
X10280000Y-11700000D01*
X-25500000Y10500000D02*
X-23000000Y8000000D01*
X-23000000Y3116118D02*
X-22133883Y2250001D01*
X-3500000Y-3500000D02*
X-4000000Y-4000000D01*
X9960000Y7267544D02*
X9200000Y6507544D01*
X-6500000Y-32500000D02*
X-1500000Y-32500000D01*
X-21000000Y-15725000D02*
X-20225000Y-16500000D01*
X-4950000Y-1452456D02*
X-4950000Y-2050000D01*
X-23000000Y3500000D02*
X-23000000Y3116118D01*
X2000000Y5000000D02*
X1000000Y5000000D01*
X2800000Y6507544D02*
X2800000Y5800000D01*
X-7020000Y-4205000D02*
X-6225000Y-5000000D01*
X-13000000Y-5500000D02*
X-10500000Y-8000000D01*
X7160000Y-1840000D02*
X7500000Y-1500000D01*
X-5000000Y-4000000D02*
X-5500000Y-3500000D01*
X10330000Y11447544D02*
X12947544Y11447544D01*
X5720000Y-11032500D02*
X6588000Y-11900500D01*
X-16500000Y-1500000D02*
X-14597544Y-1500000D01*
X9000000Y-1000000D02*
X7500000Y500000D01*
X1670000Y7267544D02*
X1670000Y11447544D01*
X-13000000Y-3375000D02*
X-13000000Y-5500000D01*
X-21000000Y-15000000D02*
X-21000000Y-15725000D01*
X6588000Y-11900500D02*
X10079500Y-11900500D01*
X35000000Y-9000000D02*
X35850000Y-8150000D01*
X35850000Y8650000D02*
X34000000Y10500000D01*
X-5000000Y-4000000D02*
X-6000000Y-5000000D01*
X-20225000Y-19725000D02*
X-22500000Y-22000000D01*
X1000000Y5000000D02*
X-3447544Y9447544D01*
X12000000Y-11000000D02*
X12500000Y-11500000D01*
X10330000Y7267544D02*
X10330000Y11447544D01*
X-14400000Y8347544D02*
X-22652456Y8347544D01*
X-3500000Y-3500000D02*
X-2059021Y-3500000D01*
X4176685Y176685D02*
X4500000Y500000D01*
X-14400000Y9447544D02*
X-14400000Y8347544D01*
X12500000Y-11500000D02*
X12500000Y-14000000D01*
X12309999Y-9980000D02*
X12000000Y-9980000D01*
X12500000Y-16020000D02*
X12500000Y-15000000D01*
X12500000Y-14000000D02*
X12000000Y-14500000D01*
X10330000Y7267544D02*
X9960000Y7267544D01*
X12500000Y-15000000D02*
X12000000Y-14500000D01*
X10280000Y-11700000D02*
X12000000Y-9980000D01*
X2800000Y5800000D02*
X2000000Y5000000D01*
X10079500Y-11900500D02*
X10280000Y-11700000D01*
X-8000000Y-6500000D02*
X-7905880Y-6594120D01*
X3010000Y1500000D02*
X3500000Y1990000D01*
X1000000Y5000000D02*
X0Y4000000D01*
X3500000Y1990000D02*
X4500000Y1990000D01*
X9000000Y-4000000D02*
X9000000Y-5000000D01*
X-13500000Y-34000000D02*
X-13000000Y-33500000D01*
X12500000Y-27000000D02*
X12000000Y-26500000D01*
X18780000Y-15870000D02*
X18780000Y-15111104D01*
X-23500000Y3000000D02*
X-23000000Y3500000D01*
X12500000Y-28500000D02*
X12500000Y-27000000D01*
X-32000000Y10500000D02*
X-25500000Y10500000D01*
X4500000Y1990000D02*
X5500000Y1990000D01*
X18780000Y-15111104D02*
X17898396Y-14229500D01*
X-14597544Y-1500000D02*
X-14550000Y-1452456D01*
X-20000000Y1000000D02*
X-20000000Y-250000D01*
X-3447544Y9447544D02*
X-5100000Y9447544D01*
X7160000Y-2500000D02*
X7160000Y-1840000D01*
X1176682Y176685D02*
X4176685Y176685D01*
X-23500000Y2160000D02*
X-23500000Y3000000D01*
X13000000Y-9289999D02*
X12309999Y-9980000D01*
X-2059021Y-3500000D02*
X-1981270Y-3577751D01*
X7160000Y-2500000D02*
X7500000Y-2500000D01*
X13000000Y-8000000D02*
X13000000Y-9289999D01*
X-22652456Y8347544D02*
X-23000000Y8000000D01*
X1670000Y7267544D02*
X2040000Y7267544D01*
X35850000Y-8150000D02*
X35850000Y8650000D01*
X-17000000Y-34000000D02*
X-13500000Y-34000000D01*
X2040000Y7267544D02*
X2800000Y6507544D01*
X2000000Y1500000D02*
X3010000Y1500000D01*
X0Y4000000D02*
X-500000Y4000000D01*
X-7020000Y-3500000D02*
X-7020000Y-4205000D01*
X7500000Y-2500000D02*
X9000000Y-4000000D01*
X-20225000Y-16500000D02*
X-20225000Y-19725000D01*
X14220000Y-14300000D02*
X12500000Y-16020000D01*
X12947544Y11447544D02*
X13000000Y11500000D01*
X-4000000Y-4000000D02*
X-5000000Y-4000000D01*
X4500000Y1990000D02*
X4500000Y500000D01*
X11500000Y-19500000D02*
X11500000Y-15000000D01*
X9200000Y6507544D02*
X9167442Y6507544D01*
X-4950000Y-2050000D02*
X-3500000Y-3500000D01*
X-20000000Y-250000D02*
X-19625000Y-625000D01*
X10500000Y-7000000D02*
X11000000Y-7500000D01*
X11500000Y-15000000D02*
X12000000Y-14500000D01*
X-7905880Y-6594120D02*
X-6000000Y-6594120D01*
X7500000Y500000D02*
X4500000Y500000D01*
X-1500000Y-32500000D02*
X500000Y-30500000D01*
X5720000Y-10260000D02*
X5720000Y-11032500D01*
X-5500000Y-3500000D02*
X-7020000Y-3500000D01*
X9167442Y6507544D02*
X9159898Y6500000D01*
X10500000Y-5500000D02*
X10500000Y-7000000D01*
X17898396Y-14229500D02*
X14290500Y-14229500D01*
%TO.N,+3V3*%
D48*
X13000000Y-80000D02*
X13000000Y-3000000D01*
X-7185336Y-5589664D02*
X-7775000Y-5000000D01*
X17500000Y4420000D02*
X13000000Y-80000D01*
X13000000Y-3000000D02*
X13500000Y-3500000D01*
X24200000Y-3200000D02*
X13800000Y-3200000D01*
X-2000000Y-4980000D02*
X-500000Y-4980000D01*
X-9000000Y-9000000D02*
X-9000000Y-10000000D01*
X-5500000Y-13500000D02*
X-6500000Y-12500000D01*
X-2480000Y-4980000D02*
X-3394120Y-5894120D01*
X-5500000Y-14000000D02*
X-5500000Y-13500000D01*
X-7185336Y-5894120D02*
X-7185336Y-5589664D01*
X26000000Y-5000000D02*
X24200000Y-3200000D01*
X-8150000Y-3330000D02*
X-7980000Y-3500000D01*
X-8150000Y-1452456D02*
X-8150000Y-3330000D01*
X-9101041Y-8898959D02*
X-9000000Y-9000000D01*
X13800000Y-3200000D02*
X13500000Y-3500000D01*
X-2000000Y-4980000D02*
X-2480000Y-4980000D01*
X30500000Y-9000000D02*
X29000000Y-7500000D01*
X-9000000Y-10000000D02*
X-6500000Y-12500000D01*
X32460000Y-9000000D02*
X30500000Y-9000000D01*
X-7980000Y-3500000D02*
X-7980000Y-4795000D01*
X-7980000Y-4795000D02*
X-7775000Y-5000000D01*
X-3394120Y-5894120D02*
X-7185336Y-5894120D01*
%TO.N,/SCR_5V*%
D47*
X-35000000Y-15000000D02*
X-34000000Y-15000000D01*
X-21960000Y-16315000D02*
X-21960000Y-15000000D01*
X-23000000Y-16500000D02*
X-21775000Y-16500000D01*
X-25000000Y-18500000D02*
X-25000000Y-22000000D01*
X-25000000Y-18500000D02*
X-23000000Y-16500000D01*
X-34000000Y-15000000D02*
X-31500000Y-17500000D01*
X-25000000Y-16550000D02*
X-25000000Y-18500000D01*
X-21775000Y-16500000D02*
X-21960000Y-16315000D01*
%TO.N,/LED_DATA*%
D46*
X-3500000Y1244344D02*
X-4255656Y2000000D01*
X-5047544Y2000000D02*
X-5100000Y1947544D01*
X7500000Y-500000D02*
X-3500000Y-500000D01*
X9630000Y-2630000D02*
X7500000Y-500000D01*
X9630000Y-10260000D02*
X9630000Y-2630000D01*
X-4255656Y2000000D02*
X-5047544Y2000000D01*
%TO.N,/LED_K1*%
X8980000Y-7020000D02*
X9000000Y-7000000D01*
X4431802Y-17431802D02*
X16200000Y-29200000D01*
X16486701Y-29200000D02*
X19000000Y-31713299D01*
X4431802Y-12068198D02*
X4431802Y-17431802D01*
X8980000Y-10260000D02*
X8980000Y-7020000D01*
X2307888Y-8308228D02*
X4323500Y-10323840D01*
X4323500Y-10323840D02*
X4323500Y-11959896D01*
X4323500Y-11959896D02*
X4431802Y-12068198D01*
X19000000Y-31713299D02*
X19000000Y-39000000D01*
X16200000Y-29200000D02*
X16486701Y-29200000D01*
%TO.N,/LED_K2*%
X3873500Y-17509896D02*
X11000000Y-24636396D01*
X3873500Y-10737337D02*
X3873500Y-17509896D01*
X2250797Y-9233945D02*
X2370108Y-9233945D01*
X8320000Y-7120003D02*
X8199997Y-7000000D01*
X8320000Y-10260000D02*
X8320000Y-7120003D01*
X2370108Y-9233945D02*
X3873500Y-10737337D01*
X11000000Y-24636396D02*
X11000000Y-30500000D01*
%TO.N,/LED_K3*%
X7670000Y-10260000D02*
X7670000Y-9487500D01*
X3423500Y-11039616D02*
X3423500Y-38923500D01*
X7399994Y-9217494D02*
X7399994Y-7000000D01*
X3423500Y-38923500D02*
X3500000Y-39000000D01*
X2453622Y-10201343D02*
X2585227Y-10201343D01*
X2585227Y-10201343D02*
X3423500Y-11039616D01*
X7670000Y-9487500D02*
X7399994Y-9217494D01*
%TO.N,/LED_K4*%
X2500000Y-25500000D02*
X2500000Y-11000000D01*
X1000000Y-27000000D02*
X2500000Y-25500000D01*
X-4500000Y-30500000D02*
X-4500000Y-28500000D01*
X-4500000Y-28500000D02*
X-3000000Y-27000000D01*
X-3000000Y-27000000D02*
X1000000Y-27000000D01*
X7020000Y-10260000D02*
X7020000Y-9473896D01*
X7020000Y-9473896D02*
X6599991Y-9053887D01*
X6599991Y-9053887D02*
X6599991Y-7000000D01*
%TO.N,/LED_CHAIN*%
X5720000Y-17720000D02*
X5720000Y-16000000D01*
X14870000Y-17630000D02*
X14500000Y-18000000D01*
X14870000Y-15870000D02*
X14870000Y-17630000D01*
X6000000Y-18000000D02*
X5720000Y-17720000D01*
%TO.N,/LED_LATCH*%
X-3081668Y1869344D02*
X-3488604Y1869344D01*
X6370000Y-16000000D02*
X6370000Y-15227500D01*
X6370000Y-15227500D02*
X8830155Y-12767345D01*
X-1375000Y-1125000D02*
X5223500Y-7723500D01*
X-4366804Y2747544D02*
X-5100000Y2747544D01*
X6370000Y-12318896D02*
X6370000Y-16000000D01*
X-2934313Y-1125000D02*
X-1375000Y-1125000D01*
X-2759549Y1547225D02*
X-3081668Y1869344D01*
X18130000Y-11245500D02*
X18130000Y-10130000D01*
X15495000Y-12235871D02*
X17139629Y-12235871D01*
X5223500Y-11172396D02*
X6370000Y-12318896D01*
X5223500Y-7723500D02*
X5223500Y-11172396D01*
X8830155Y-12767345D02*
X9333720Y-12767345D01*
X17139629Y-12235871D02*
X18130000Y-11245500D01*
X-3488604Y1869344D02*
X-4366804Y2747544D01*
%TO.N,/LED_K5*%
X-5195100Y-26550000D02*
X-12000000Y-33354900D01*
X7020000Y-18287768D02*
X7020000Y-16000000D01*
X1500000Y-25500000D02*
X450000Y-26550000D01*
X10500000Y-21767768D02*
X7020000Y-18287768D01*
X10500000Y-22500000D02*
X10500000Y-21767768D01*
X450000Y-26550000D02*
X-5195100Y-26550000D01*
X-12000000Y-33354900D02*
X-12000000Y-39000000D01*
%TO.N,/LED_K6*%
X-7000000Y-27500000D02*
X-17000000Y-27500000D01*
X1500000Y-24500000D02*
X-100000Y-26100000D01*
X-17000000Y-27500000D02*
X-20000000Y-30500000D01*
X-5600000Y-26100000D02*
X-7000000Y-27500000D01*
X7670000Y-18053884D02*
X7670000Y-16000000D01*
X10558058Y-20941942D02*
X7670000Y-18053884D01*
X-100000Y-26100000D02*
X-5600000Y-26100000D01*
%TO.N,/LED_K7*%
X-6150000Y-25650000D02*
X-7500000Y-27000000D01*
X8320000Y-16000000D02*
X8320000Y-17820000D01*
X-25000000Y-27000000D02*
X-27500000Y-29500000D01*
X1500000Y-23500000D02*
X-650000Y-25650000D01*
X8320000Y-17820000D02*
X10000000Y-19500000D01*
X-7500000Y-27000000D02*
X-25000000Y-27000000D01*
X-650000Y-25650000D02*
X-6150000Y-25650000D01*
X-27500000Y-29500000D02*
X-27500000Y-39000000D01*
%TO.N,/LED_K8*%
X8980000Y-17355000D02*
X9000000Y-17375000D01*
X8980000Y-16000000D02*
X8980000Y-17355000D01*
X-37000000Y5000000D02*
X-37000000Y10500000D01*
%TO.N,/LED_CLK*%
X9630000Y-13525000D02*
X9655000Y-13500000D01*
X-6952456Y1547544D02*
X-7000000Y1500000D01*
X4773500Y-9273500D02*
X4773500Y-11773500D01*
X14870000Y-10130000D02*
X14870000Y-12975000D01*
X14870000Y-12975000D02*
X14845000Y-13000000D01*
X-6000000Y1547544D02*
X-6952456Y1547544D01*
X-2500000Y-2000000D02*
X4773500Y-9273500D01*
X4773500Y-11773500D02*
X5500000Y-12500000D01*
X9630000Y-16000000D02*
X9630000Y-13525000D01*
%TO.N,/RD2*%
X-9000000Y-3000000D02*
X-9000000Y-5113604D01*
X-8991942Y-5121662D02*
X-8991942Y-6508058D01*
X-4000000Y-8875000D02*
X-4000000Y-7980000D01*
X-3000000Y-11500000D02*
X-4000000Y-10500000D01*
X-3500000Y-7480000D02*
X-2000000Y-7480000D01*
X-8020000Y-7480000D02*
X-3500000Y-7480000D01*
X-4000000Y-7980000D02*
X-3500000Y-7480000D01*
X-3000000Y-12500000D02*
X-3000000Y-11500000D01*
X-6000000Y747544D02*
X-6000000Y-500000D01*
X-2000000Y-6000000D02*
X-2000000Y-7480000D01*
X-9000000Y-5113604D02*
X-8991942Y-5121662D01*
X-8991942Y-6508058D02*
X-8020000Y-7480000D01*
%TO.N,/START*%
X-14052456Y0D02*
X-14500000Y0D01*
X-12950000Y-1102456D02*
X-14052456Y0D01*
X-12950000Y-1452456D02*
X-12950000Y-1102456D01*
%TO.N,/KEY_LED_5V*%
D45*
X-34500000Y5940000D02*
X-6560000Y-22000000D01*
X-6560000Y-22000000D02*
X-5000000Y-22000000D01*
X31500000Y10500000D02*
X27825000Y6825000D01*
X-4000000Y-24000000D02*
X-4000000Y-23000000D01*
X-5000000Y-22500000D02*
X-7500000Y-25000000D01*
X-4000000Y-23000000D02*
X-5000000Y-22000000D01*
X27825000Y-9387883D02*
X14712883Y-22500000D01*
X-5000000Y-22000000D02*
X-5000000Y-22500000D01*
X27825000Y6825000D02*
X27825000Y-9387883D01*
X14712883Y-22500000D02*
X12500000Y-22500000D01*
X-34500000Y10500000D02*
X-34500000Y5940000D01*
%TO.N,/K2*%
D46*
X8500000Y-24451500D02*
X8500000Y-30500000D01*
X4048500Y-20000000D02*
X8500000Y-24451500D01*
X-9276041Y-8223959D02*
X-8821446Y-8223959D01*
X-10066942Y-5566942D02*
X-10066942Y-7433058D01*
X-5175000Y-11870405D02*
X-5175000Y-12825000D01*
X-13313604Y3947544D02*
X-10000000Y633940D01*
X-13500000Y3947544D02*
X-13313604Y3947544D01*
X-5175000Y-12825000D02*
X1500000Y-19500000D01*
X-8821446Y-8223959D02*
X-5175000Y-11870405D01*
X-10000000Y633940D02*
X-10000000Y500000D01*
X-10066942Y-7433058D02*
X-9276041Y-8223959D01*
%TO.N,/K6*%
X-37550000Y-13686396D02*
X-37550000Y-21313604D01*
X-24050000Y-550000D02*
X-20500000Y3000000D01*
X-26684314Y-12568198D02*
X-36431802Y-12568198D01*
X-22375000Y-7741116D02*
X-22375000Y-8258884D01*
X-25450000Y-1313604D02*
X-24686396Y-550000D01*
X-28500000Y-30363604D02*
X-28500000Y-30500000D01*
X-25625000Y-1500000D02*
X-25450000Y-1325000D01*
X-37550000Y-21313604D02*
X-28500000Y-30363604D01*
X-18452456Y3547544D02*
X-14400000Y3547544D01*
X-36431802Y-12568198D02*
X-37550000Y-13686396D01*
X-26124999Y-4991117D02*
X-25124999Y-4991117D01*
X-19000000Y3000000D02*
X-18452456Y3547544D01*
X-22375000Y-8258884D02*
X-26684314Y-12568198D01*
X-24686396Y-550000D02*
X-24050000Y-550000D01*
X-20500000Y3000000D02*
X-19000000Y3000000D01*
X-25450000Y-1325000D02*
X-25450000Y-1313604D01*
X-25124999Y-4991117D02*
X-22375000Y-7741116D01*
%TO.N,/K1*%
X-12875000Y2872544D02*
X-12875000Y1686148D01*
X-33000000Y-35863604D02*
X-34950000Y-37813604D01*
X-18027456Y972544D02*
X-18500000Y500000D01*
X-34950000Y-39686396D02*
X-33186396Y-41450000D01*
X-12875000Y1686148D02*
X-13588604Y972544D01*
X-36772792Y-11000000D02*
X-38900000Y-13127208D01*
X-18500000Y500000D02*
X-18500000Y-1363604D01*
X-33186396Y-41450000D02*
X14050000Y-41450000D01*
X-33000000Y-28136396D02*
X-33000000Y-35863604D01*
X-13500000Y3147544D02*
X-13150000Y3147544D01*
X14050000Y-41450000D02*
X16500000Y-39000000D01*
X-13588604Y972544D02*
X-18027456Y972544D01*
X-21250000Y-4113604D02*
X-21250000Y-5314003D01*
X-28000000Y-11000000D02*
X-36772792Y-11000000D01*
X-24131374Y-7131374D02*
X-28000000Y-11000000D01*
X-38900000Y-13127208D02*
X-38900000Y-22236396D01*
X-24131374Y-6868626D02*
X-24131374Y-7131374D01*
X-13150000Y3147544D02*
X-12875000Y2872544D01*
X-18500000Y-1363604D02*
X-21250000Y-4113604D01*
X-38900000Y-22236396D02*
X-33000000Y-28136396D01*
X-34950000Y-37813604D02*
X-34950000Y-39686396D01*
%TO.N,/K5*%
X-33197792Y-42075000D02*
X-17000000Y-42075000D01*
X-33500000Y-28500000D02*
X-33500000Y-35727208D01*
X-18422544Y1422544D02*
X-18431802Y1431802D01*
X-39350000Y-12940812D02*
X-39350000Y-22650000D01*
X-39350000Y-22650000D02*
X-33500000Y-28500000D01*
X-13500000Y1697544D02*
X-13775000Y1422544D01*
X-35400000Y-37627208D02*
X-35400000Y-39872792D01*
X-18431802Y1431802D02*
X-19000000Y863604D01*
X-22000000Y-4227208D02*
X-22000000Y-4689003D01*
X-13775000Y1422544D02*
X-18422544Y1422544D01*
X-33500000Y-35727208D02*
X-35400000Y-37627208D01*
X-36959188Y-10550000D02*
X-39350000Y-12940812D01*
X-19000000Y863604D02*
X-19000000Y-1227208D01*
X-24697061Y-6302939D02*
X-28944122Y-10550000D01*
X-13500000Y2347544D02*
X-13500000Y1697544D01*
X-28944122Y-10550000D02*
X-36959188Y-10550000D01*
X-19000000Y-1227208D02*
X-22000000Y-4227208D01*
X-35400000Y-39872792D02*
X-33197792Y-42075000D01*
%TO.N,/K7*%
X-20552456Y1947544D02*
X-14400000Y1947544D01*
X-24500000Y-1000000D02*
X-23500000Y-1000000D01*
X-39800000Y-22836396D02*
X-34125000Y-28511396D01*
X-25000000Y-2000000D02*
X-25000000Y-1500000D01*
X-25317817Y-5798298D02*
X-32843882Y-5798298D01*
X-39800000Y-12754416D02*
X-39800000Y-22836396D01*
X-23500000Y-1000000D02*
X-20552456Y1947544D01*
X-32843882Y-5798298D02*
X-39800000Y-12754416D01*
X-25000000Y-1500000D02*
X-24500000Y-1000000D01*
X-34125000Y-28511396D02*
X-34125000Y-35000000D01*
%TO.N,/SELECT*%
X-9441942Y-7058058D02*
X-9441942Y-5308058D01*
X-12275000Y-1327456D02*
X-12275000Y-755950D01*
X-12000000Y-3883884D02*
X-12000000Y-3000000D01*
X26500000Y10500000D02*
X26500000Y10000000D01*
X-12150000Y-1452456D02*
X-12275000Y-1327456D01*
X-11258884Y-4625000D02*
X-12000000Y-3883884D01*
X-10125000Y-4625000D02*
X-11258884Y-4625000D01*
X26500000Y10000000D02*
X14000000Y-2500000D01*
X1000000Y-9500000D02*
X-6909009Y-9500000D01*
X-9441942Y-5308058D02*
X-10125000Y-4625000D01*
X-8635050Y-7773959D02*
X-8726041Y-7773959D01*
X-6909009Y-9500000D02*
X-8635050Y-7773959D01*
X-8726041Y-7773959D02*
X-9441942Y-7058058D01*
X-12275000Y-755950D02*
X-12449999Y-580951D01*
%TO.N,/EXP7*%
X-11750000Y-552456D02*
X-11650504Y-552456D01*
X-31565687Y1565687D02*
X-31625000Y1506374D01*
X-31625000Y-3506374D02*
X-30065687Y-5065687D01*
X-31625000Y1506374D02*
X-31625000Y-3506374D01*
%TO.N,/K3*%
X-11350000Y-1802456D02*
X-12047544Y-2500000D01*
X-38000000Y-13500000D02*
X-38000000Y-21500000D01*
X-12047544Y-2500000D02*
X-18000000Y-2500000D01*
X-1000000Y-41000000D02*
X1000000Y-39000000D01*
X-18000000Y-2500000D02*
X-20000000Y-4500000D01*
X-34500000Y-38000000D02*
X-34500000Y-39500000D01*
X-38000000Y-21500000D02*
X-31500000Y-28000000D01*
X-31500000Y-28000000D02*
X-31500000Y-35000000D01*
X-27000000Y-12000000D02*
X-36500000Y-12000000D01*
X-36500000Y-12000000D02*
X-38000000Y-13500000D01*
X-33000000Y-41000000D02*
X-1000000Y-41000000D01*
X-20000000Y-4500000D02*
X-20000000Y-7000000D01*
X-34500000Y-39500000D02*
X-33000000Y-41000000D01*
X-11350000Y-1452456D02*
X-11350000Y-1802456D01*
X-31500000Y-35000000D02*
X-34500000Y-38000000D01*
X-23000000Y-8000000D02*
X-27000000Y-12000000D01*
%TO.N,/K4*%
X-11025000Y72544D02*
X-12927456Y72544D01*
X-38450000Y-22050000D02*
X-32000000Y-28500000D01*
X-16500000Y-625000D02*
X-17125000Y-625000D01*
X-36636396Y-11500000D02*
X-38450000Y-13313604D01*
X-27631374Y-11500000D02*
X-36636396Y-11500000D01*
X-12927456Y72544D02*
X-13000000Y0D01*
X-17125000Y-625000D02*
X-20625000Y-4125000D01*
X-32000000Y-28500000D02*
X-32000000Y-32875000D01*
X-23565687Y-7434313D02*
X-27631374Y-11500000D01*
X-38450000Y-13313604D02*
X-38450000Y-22050000D01*
X-13500000Y-33000000D02*
X-11000000Y-30500000D01*
X-32000000Y-32875000D02*
X-32125000Y-33000000D01*
X-10950000Y-552456D02*
X-10950000Y-2456D01*
X-21500000Y-33000000D02*
X-13500000Y-33000000D01*
X-20625000Y-4125000D02*
X-20625000Y-6000000D01*
X-10950000Y-2456D02*
X-11025000Y72544D01*
%TO.N,/MODE_PAIR*%
X-10550000Y-3550000D02*
X-11000000Y-4000000D01*
X-23500000Y-2160000D02*
X-23500000Y-3000000D01*
X-23500000Y-3000000D02*
X-23000000Y-3500000D01*
X-10550000Y-1452456D02*
X-10550000Y-3550000D01*
%TO.N,/USB_D-*%
X5750000Y6507544D02*
X5728200Y6485744D01*
X-4828200Y-180656D02*
X-5100000Y-452456D01*
X-4471800Y-180656D02*
X-4828200Y-180656D01*
X5416328Y5075164D02*
X4308628Y5075164D01*
X5728200Y6485744D02*
X5728200Y5387036D01*
X6750000Y6507544D02*
X6750000Y5693452D01*
X5750000Y5551144D02*
X5750000Y6507544D01*
X-4471800Y165164D02*
X-4471800Y-180656D01*
X6750000Y5693452D02*
X6585892Y5529344D01*
X-601372Y165164D02*
X-4471800Y165164D01*
X6585892Y5529344D02*
X5771800Y5529344D01*
X5771800Y5529344D02*
X5750000Y5551144D01*
X5728200Y5387036D02*
X5416328Y5075164D01*
X4308628Y5075164D02*
X-601372Y165164D01*
%TO.N,/USB_D+*%
X4120500Y5529344D02*
X-789500Y619344D01*
X-789500Y619344D02*
X-4669122Y619344D01*
X6228200Y7485744D02*
X5271800Y7485744D01*
X5228200Y6507544D02*
X5228200Y5529344D01*
X6250000Y6507544D02*
X6250000Y7463944D01*
X-4940922Y347544D02*
X-5100000Y347544D01*
X5250000Y6507544D02*
X5228200Y6507544D01*
X5271800Y7485744D02*
X5250000Y7463944D01*
X-4669122Y619344D02*
X-4940922Y347544D01*
X5228200Y5529344D02*
X4120500Y5529344D01*
X6250000Y7463944D02*
X6228200Y7485744D01*
X5250000Y7463944D02*
X5250000Y6507544D01*
%TO.N,/RD1*%
X-3124337Y3815687D02*
X-3124337Y2624337D01*
X-500000Y-6000000D02*
X-500000Y-7480000D01*
X500000Y-8000000D02*
X20000Y-8000000D01*
X500000Y-11000000D02*
X0Y-10500000D01*
X-3124337Y2624337D02*
X-3000000Y2500000D01*
X20000Y-8000000D02*
X-500000Y-7480000D01*
X-500000Y-6000000D02*
X500000Y-6000000D01*
X500000Y-12500000D02*
X500000Y-11000000D01*
%TO.N,/nRESET*%
X-6847544Y2347544D02*
X-7000000Y2500000D01*
X-491117Y-1124999D02*
X124999Y-1124999D01*
X1500000Y-2500000D02*
X2840000Y-2500000D01*
X-6000000Y2347544D02*
X-6847544Y2347544D01*
X124999Y-1124999D02*
X1500000Y-2500000D01*
%TO.N,/EXP0*%
X-13275000Y6472544D02*
X-25527456Y6472544D01*
X-6000000Y3147544D02*
X-11877208Y3147544D01*
X27458058Y-15041942D02*
X27958058Y-15041942D01*
X-11877208Y3147544D02*
X-12875000Y4145336D01*
X24500000Y-14500000D02*
X25148348Y-14500000D01*
X32460000Y-11540000D02*
X30540000Y-11540000D01*
X30540000Y-11540000D02*
X30000000Y-11000000D01*
X-25527456Y6472544D02*
X-29500000Y2500000D01*
X-12875000Y4145336D02*
X-12875000Y6072544D01*
X-31000000Y1000000D02*
X-31000000Y-3000000D01*
X-12875000Y6072544D02*
X-13275000Y6472544D01*
X-31000000Y-3000000D02*
X-29500000Y-4500000D01*
X25148348Y-14500000D02*
X26324174Y-15675826D01*
X27958058Y-15041942D02*
X29000000Y-14000000D01*
%TO.N,/EXP2*%
X-8375000Y3875000D02*
X-8500000Y4000000D01*
X29000000Y-3000000D02*
X29000000Y-6000000D01*
X-6000000Y3947544D02*
X-6072544Y3875000D01*
X-6072544Y3875000D02*
X-8375000Y3875000D01*
X29000000Y-9500000D02*
X29000000Y-12000000D01*
X29000000Y-6000000D02*
X30000000Y-7000000D01*
%TO.N,/EXP1*%
X-5100000Y4347544D02*
X-4472544Y4347544D01*
X15000000Y7000000D02*
X15000000Y3000000D01*
X-4472544Y4347544D02*
X-4000000Y3875000D01*
X14000000Y8000000D02*
X15000000Y7000000D01*
%TO.N,/EXP4*%
X26591942Y-12408058D02*
X25833058Y-13166942D01*
X-6000000Y4747544D02*
X-6752456Y4747544D01*
X-6752456Y4747544D02*
X-7000000Y4500000D01*
X14000000Y7000000D02*
X14000000Y2500000D01*
X25833058Y-14300826D02*
X28152232Y-16620000D01*
X28152232Y-16620000D02*
X32460000Y-16620000D01*
X13000000Y8000000D02*
X14000000Y7000000D01*
X25833058Y-13166942D02*
X25833058Y-14300826D01*
%TO.N,/EXP3*%
X26458058Y-14041942D02*
X27595000Y-12905000D01*
X27595000Y-12905000D02*
X33825000Y-12905000D01*
X33825000Y-12905000D02*
X35000000Y-14080000D01*
X-2339766Y4577016D02*
X-2910293Y5147544D01*
X-2910293Y5147544D02*
X-5100000Y5147544D01*
%TO.N,/EXP5*%
X-2578918Y5947544D02*
X-5100000Y5947544D01*
X-1774078Y5142704D02*
X-2578918Y5947544D01*
%TO.N,/EXP6*%
X-750000Y5250000D02*
X-1972544Y6472544D01*
X-1972544Y6472544D02*
X-5875000Y6472544D01*
X-5875000Y6472544D02*
X-6000000Y6347544D01*
%TO.N,/SWDIO*%
X1328274Y12572544D02*
X-2000000Y9244270D01*
X17500000Y6960000D02*
X16571852Y6960000D01*
X14415000Y11085000D02*
X12927456Y12572544D01*
X14415000Y9116852D02*
X14415000Y11085000D01*
X-2000000Y9244270D02*
X-2000000Y9000000D01*
X12927456Y12572544D02*
X1328274Y12572544D01*
X16571852Y6960000D02*
X14415000Y9116852D01*
%TO.N,/SWDCLK*%
X13977456Y13022544D02*
X897144Y13022544D01*
X17500000Y9500000D02*
X13977456Y13022544D01*
X897144Y13022544D02*
X-2620758Y9504642D01*
%TO.N,Net-(USBC1-CC1)*%
X7250000Y5250000D02*
X5500000Y3500000D01*
X5500000Y3500000D02*
X5500000Y3010000D01*
X7250000Y6507544D02*
X7250000Y5250000D01*
%TO.N,/LED_K9*%
X18985657Y-17060500D02*
X19276500Y-16769657D01*
X19276500Y-16769657D02*
X19276500Y-16723500D01*
X27000000Y8500000D02*
X29000000Y10500000D01*
X15520000Y-15870000D02*
X15520000Y-16985500D01*
X19276500Y-16723500D02*
X27000000Y-9000000D01*
X15595000Y-17060500D02*
X18985657Y-17060500D01*
X15520000Y-16985500D02*
X15595000Y-17060500D01*
X27000000Y-9000000D02*
X27000000Y8500000D01*
%TO.N,Net-(J14-Pin_2)*%
X-13712627Y-8287373D02*
X-11500000Y-10500000D01*
X-10000000Y-9500000D02*
X-10000000Y-10000000D01*
X-10000000Y-10000000D02*
X-8500000Y-11500000D01*
X-18858413Y-8287373D02*
X-13712627Y-8287373D01*
X-27500000Y-15633882D02*
X-21491117Y-9624999D01*
X-27500000Y-22000000D02*
X-27500000Y-15633882D01*
%TO.N,Net-(USBC1-CC2)*%
X4558674Y4068674D02*
X3500000Y3010000D01*
X4558674Y4441326D02*
X4558674Y4068674D01*
X4250000Y6507544D02*
X4250000Y7750000D01*
X4250000Y7750000D02*
X4500000Y8000000D01*
%TO.N,Net-(J14-Pin_1)*%
X-5949389Y-15000000D02*
X-5000000Y-15000000D01*
X-19000000Y-7500000D02*
X-13449389Y-7500000D01*
X-13449389Y-7500000D02*
X-5949389Y-15000000D01*
X-30000000Y-22000000D02*
X-30000000Y-17000000D01*
X-30000000Y-17000000D02*
X-22000000Y-9000000D01*
%TD*%
M02*
