M48
; DRILL file KiCad 10.0.7 date 2026-10-10T23:56:10
; FORMAT={-:-/ absolute / inch / decimal}
; #@! TF.CreationDate,2026-10-10T23:56:10+09:00
; #@! TF.GenerationSoftware,Kicad,Pcbnew,10.0.7
; #@! TF.FileFunction,Plated,1,2,PTH
FMAT,2
INCH
; #@! TA.AperFunction,Plated,PTH,ViaDrill
T1C0.0118
; #@! TA.AperFunction,Plated,PTH,ViaDrill
T2C0.0138
; #@! TA.AperFunction,Plated,PTH,ViaDrill
T3C0.0157
; #@! TA.AperFunction,Plated,PTH,ViaDrill
T4C0.0197
; #@! TA.AperFunction,Plated,PTH,ComponentDrill
T5C0.0315
; #@! TA.AperFunction,Plated,PTH,ComponentDrill
T6C0.0374
; #@! TA.AperFunction,Plated,PTH,ComponentDrill
T7C0.0394
; #@! TA.AperFunction,Plated,PTH,ComponentDrill
T8C0.0402
; #@! TA.AperFunction,Plated,PTH,ComponentDrill
T9C0.2008
%
G90
G05
T1
X-1.4567Y0.1969
X-1.3435Y-1.378
X-1.2648Y-1.2992
X-1.2427Y0.0616
X-1.2205Y0.0394
X-1.2205Y-0.5906
X-1.1837Y-0.1994
X-1.1614Y0.0984
X-1.1614Y-0.1772
X-1.122Y-1.2008
X-1.0285Y-0.1965
X-1.0089Y-0.0591
X-0.9968Y-0.2283
X-0.9843Y-0.0787
X-0.9723Y-0.2481
X-0.9501Y-0.2704
X-0.9278Y-0.2927
X-0.9055Y0.315
X-0.9055Y0.1378
X-0.9055Y-0.1378
X-0.9055Y-0.315
X-0.8714Y0.0886
X-0.8661Y-0.1846
X-0.8661Y-0.3543
X-0.8465Y-1.2992
X-0.8461Y-0.3789
X-0.8366Y-0.2092
X-0.812Y-0.2362
X-0.7874Y0.0394
X-0.7874Y-0.2756
X-0.7726Y-0.0246
X-0.748Y-0.2953
X-0.7425Y-0.3263
X-0.6693Y-1.3386
X-0.6693Y-1.6565
X-0.6496Y-0.0246
X-0.6496Y-0.0591
X-0.5709Y0.0
X-0.5118Y0.0
X-0.5118Y-0.1329
X-0.5118Y-1.3189
X-0.4902Y-0.0229
X-0.472Y-0.1229
X-0.4587Y-0.0218
X-0.4528Y-0.4134
X-0.4331Y-0.1575
X-0.4331Y-1.2008
X-0.4134Y-0.315
X-0.3963Y-0.2192
X-0.3937Y0.0197
X-0.3937Y-0.374
X-0.3543Y-0.1181
X-0.3346Y0.1575
X-0.3346Y-0.4528
X-0.315Y-0.2559
X-0.2756Y0.1772
X-0.2756Y0.0984
X-0.2756Y0.0591
X-0.2579Y-0.192
X-0.2559Y-1.2795
X-0.2362Y-0.0197
X-0.2362Y-0.2596
X-0.2008Y0.3286
X-0.2008Y0.2971
X-0.2008Y0.0452
X-0.1969Y-0.5906
X-0.1575Y0.1526
X-0.1575Y-0.3494
X-0.1575Y-0.4134
X-0.1378Y0.049
X-0.1378Y-0.0197
X-0.123Y0.1502
X-0.1181Y0.0984
X-0.1155Y-0.0443
X-0.1086Y0.0609
X-0.1032Y0.3742
X-0.0984Y-0.0787
X-0.0921Y0.1802
X-0.0787Y0.3543
X-0.0787Y-0.3346
X-0.078Y-0.1409
X-0.0698Y0.2025
X-0.0295Y0.2067
X-0.0246Y-0.3346
X-0.0197Y0.1575
X-0.0193Y-0.0443
X0.0Y-0.4134
X0.0197Y-0.2362
X0.0197Y-0.315
X0.0394Y-0.374
X0.0463Y0.007
X0.0591Y-0.7677
X0.0591Y-0.9252
X0.0591Y-0.9646
X0.0591Y-1.0039
X0.0787Y0.0591
X0.0886Y-0.3635
X0.0909Y-0.3271
X0.0966Y-0.4016
X0.0984Y-0.4331
X0.1102Y0.2562
X0.1594Y-0.7874
X0.1772Y0.315
X0.1795Y0.1749
X0.2165Y-0.4921
X0.2362Y-0.7087
X0.2598Y-0.2756
X0.2913Y-0.2756
X0.2953Y-0.0591
X0.3228Y-0.2756
X0.3543Y-0.0394
X0.3543Y-0.1969
X0.3543Y-0.2756
X0.3543Y-0.6841
X0.3606Y0.2559
X0.3675Y-0.5027
X0.3801Y-0.5315
X0.3937Y-0.7677
X0.4134Y-0.2165
X0.4134Y-0.8858
X0.4157Y-0.8245
X0.4331Y-0.2953
X0.4528Y-0.7677
X0.4724Y-1.0433
X0.4921Y-1.122
X0.5118Y0.4528
X0.5118Y0.315
X0.5118Y-0.315
X0.5512Y0.315
X0.5512Y0.0984
X0.5512Y-0.0984
X0.5709Y-0.7087
X0.5844Y-0.5118
X0.5906Y0.1181
X0.61Y-0.4817
X0.9646Y-0.5709
X1.0364Y-0.6172
X1.0417Y-0.5528
X1.0469Y-0.4885
X1.081Y-0.5922
X1.1417Y-0.1181
X1.1417Y-0.374
X1.1417Y-0.4724
X1.1417Y-0.5512
X1.1811Y-0.2756
X1.1811Y-0.4331
T2
X-0.3583Y-0.3504
X-0.2829Y-0.2321
X-0.2165Y-0.5512
X0.5315Y-0.1378
X1.0236Y-0.1969
X1.1417Y-0.2953
T3
X-1.2402Y-0.689
X-0.9843Y-0.7283
X-0.7672Y-0.4523
X-0.4129Y-0.4523
X-0.2264Y-0.0847
X-0.0726Y0.0529
X0.0591Y0.1575
X0.2953Y0.1575
X0.6102Y-0.748
X0.8071Y-0.5315
T4
X-0.2953Y-0.9843
X-0.1575Y-0.9449
X0.4921Y-0.8858
T6
X-1.5551Y0.4134
X-1.4567Y0.4134
X-1.3583Y0.4134
X-1.2598Y0.4134
X-1.1811Y-0.8661
X-1.1811Y-1.5354
X-1.0827Y-0.8661
X-1.0827Y-1.5354
X-0.9843Y-0.8661
X-0.9843Y-1.5354
X-0.8858Y-0.8661
X-0.8858Y-1.2008
X-0.8858Y-1.5354
X-0.7874Y-1.2008
X-0.689Y-1.2008
X-0.5906Y-1.2008
X-0.5709Y-1.5354
X-0.4724Y-1.5354
X-0.374Y-1.5354
X-0.2756Y-1.2008
X-0.2756Y-1.5354
X-0.1772Y-1.2008
X-0.0787Y-1.2008
X0.0197Y-1.2008
X0.0394Y-1.5354
X0.1378Y-1.5354
X0.2362Y-1.5354
X0.3346Y-1.2008
X0.3346Y-1.5354
X0.4331Y-1.2008
X0.5315Y-1.2008
X0.6299Y-1.2008
X0.6496Y-1.5354
X0.748Y-1.5354
X0.8465Y-1.5354
X0.9449Y-1.5354
X1.0433Y0.4134
X1.1417Y0.4134
X1.2402Y0.4134
X1.3386Y0.4134
T7
X-0.5709Y-0.8661
X-0.4724Y-0.8661
X1.278Y-0.3543
X1.278Y-0.4543
X1.278Y-0.5543
X1.278Y-0.6543
X1.278Y-0.7543
X1.378Y-0.3543
X1.378Y-0.4543
X1.378Y-0.5543
X1.378Y-0.6543
X1.378Y-0.7543
T8
X0.689Y0.474
X0.689Y0.374
X0.689Y0.274
X0.689Y0.174
T9
X-1.5073Y-0.0436
X-1.5073Y-1.2247
X1.2879Y-0.0436
X1.2879Y-1.2247
T5
G00X0.0657Y0.4428
M15
G01X0.0657Y0.4586
M16
G05
G00X0.0657Y0.2723
M15
G01X0.0657Y0.2999
M16
G05
G00X0.4067Y0.4428
M15
G01X0.4067Y0.4586
M16
G05
G00X0.4067Y0.2723
M15
G01X0.4067Y0.2999
M16
G05
M30
